<?xml version="1.0" encoding="UTF-8"?>
<svg version="1.1" xmlns="http://www.w3.org/2000/svg" width="212" height="237">
<path d="M0 0 C69.96 0 139.92 0 212 0 C212 78.21 212 156.42 212 237 C142.04 237 72.08 237 0 237 C0 158.79 0 80.58 0 0 Z " fill="#FAFAFA" transform="translate(0,0)"/>
<path d="M0 0 C69.96 0 139.92 0 212 0 C212 36.96 212 73.92 212 112 C211.67 112 211.34 112 211 112 C210.67 107.38 210.34 102.76 210 98 C207.525 98.495 207.525 98.495 205 99 C203.39696373 99.06371368 201.79162328 99.08644214 200.1875 99.0625 C199.39730469 99.05347656 198.60710937 99.04445313 197.79296875 99.03515625 C197.20128906 99.02355469 196.60960937 99.01195313 196 99 C195.66104344 97.27192682 195.32908475 95.54248026 195 93.8125 C194.814375 92.84957031 194.62875 91.88664062 194.4375 90.89453125 C194.03122388 88.2065794 193.92066428 85.71228981 194 83 C195.6232687 82.3291288 197.24867578 81.66342971 198.875 81 C199.77992188 80.62875 200.68484375 80.2575 201.6171875 79.875 C204 79 204 79 206 79 C205.72285156 78.32453125 205.44570312 77.6490625 205.16015625 76.953125 C204.79792969 76.06109375 204.43570313 75.1690625 204.0625 74.25 C203.70285156 73.36828125 203.34320313 72.4865625 202.97265625 71.578125 C202.14643424 69.38813896 201.50630057 67.28101729 201 65 C200.39671875 65.28875 199.7934375 65.5775 199.171875 65.875 C198.37265625 66.24625 197.5734375 66.6175 196.75 67 C195.96109375 67.37125 195.1721875 67.7425 194.359375 68.125 C192 69 192 69 188 69 C186.35 65.37 184.7 61.74 183 58 C190.75 51 190.75 51 193 51 C191.93356893 49.32246798 190.84625276 47.65819745 189.75 46 C189.14671875 45.071875 188.5434375 44.14375 187.921875 43.1875 C187.28765625 42.465625 186.6534375 41.74375 186 41 C181.63204596 41 181.25341007 41.22762148 178.25 44 C177.63640625 44.556875 177.0228125 45.11375 176.390625 45.6875 C175.93171875 46.120625 175.4728125 46.55375 175 47 C173.87411986 46.04270084 172.7493285 45.08412105 171.625 44.125 C170.99851563 43.59132812 170.37203125 43.05765625 169.7265625 42.5078125 C168.44163349 41.38567993 167.20628025 40.20628025 166 39 C166.18607587 35.55759636 166.90318008 34.11675343 169.125 31.4375 C171.24663158 29.24750099 171.24663158 29.24750099 170.828125 27.015625 C169.82218723 24.56721042 168.80913436 23.77319745 166.625 22.3125 C165.71621094 21.68794922 165.71621094 21.68794922 164.7890625 21.05078125 C162.87360047 19.84243325 162.87360047 19.84243325 160 19 C159.62875 20.0828125 159.62875 20.0828125 159.25 21.1875 C157.89016326 24.24713266 156.17082246 26.4673738 154 29 C149.50202887 27.31326082 145.27113698 25.18326108 141 23 C141.28482368 21.58194169 141.57818144 20.16559621 141.875 18.75 C142.11863281 17.56664062 142.11863281 17.56664062 142.3671875 16.359375 C142.99150075 14.03168856 143.84838542 12.10968048 145 10 C143.43840941 9.51787786 141.87568072 9.03944127 140.3125 8.5625 C139.44238281 8.29566406 138.57226562 8.02882813 137.67578125 7.75390625 C135.1495978 7.04214945 132.5735714 6.51471428 130 6 C129.34 9.63 128.68 13.26 128 17 C122.93676791 17.20666253 118.76017293 16.80886571 114 15 C112.4543243 10.36297289 112.94264372 5.87528349 113 1 C108.05 1.33 103.1 1.66 98 2 C98 6.29 98 10.58 98 15 C93.71 15.66 89.42 16.32 85 17 C82 8.375 82 8.375 82 5 C76.53135543 6.01591421 71.23609987 7.07091057 66 9 C66.28875 9.75925781 66.5775 10.51851562 66.875 11.30078125 C67.24625 12.29464844 67.6175 13.28851563 68 14.3125 C68.37125 15.29863281 68.7425 16.28476562 69.125 17.30078125 C70 20 70 20 70 23 C68.58521865 23.64995297 67.16808513 24.29478722 65.75 24.9375 C64.56664063 25.47697266 64.56664063 25.47697266 63.359375 26.02734375 C61 27 61 27 57 28 C55.02 25.03 53.04 22.06 51 19 C46.03648551 19.98815283 46.03648551 19.98815283 42.1875 22.5625 C41.28064453 23.24505859 41.28064453 23.24505859 40.35546875 23.94140625 C39.90816406 24.29074219 39.46085937 24.64007812 39 25 C40.05329235 28.07210269 41.0571617 30.06696084 43.1875 32.5625 C45 35 45 35 44.9375 37.125 C43.88271076 39.23457849 42.84063182 40.52749455 41 42 C40.34 42 39.68 42 39 42 C38.34 43.32 37.68 44.64 37 46 C36.29423828 45.38511719 36.29423828 45.38511719 35.57421875 44.7578125 C34.95160156 44.21898437 34.32898437 43.68015625 33.6875 43.125 C33.07261719 42.59132812 32.45773438 42.05765625 31.82421875 41.5078125 C29.86501788 39.8359553 29.86501788 39.8359553 27 38 C25.66081194 39.62017842 24.3288031 41.24629343 23 42.875 C22.2575 43.77992187 21.515 44.68484375 20.75 45.6171875 C18.80268789 47.7759284 18.80268789 47.7759284 19 50 C21.00398137 51.85636667 23.12124992 53.53496304 25.25 55.24609375 C27 57 27 57 27 60 C26.22555505 61.7563305 25.38486776 63.48412956 24.5 65.1875 C24.0359375 66.08855469 23.571875 66.98960938 23.09375 67.91796875 C22.7328125 68.60503906 22.371875 69.29210937 22 70 C17.13103697 69.40380045 12.67209049 68.43023178 8 67 C7.34 71.29 6.68 75.58 6 80 C7.629375 80.45375 9.25875 80.9075 10.9375 81.375 C13.71484375 82.1484375 13.71484375 82.1484375 16 83 C18.00738849 87.01477698 15.7564616 92.81721232 15 97 C10.71 97 6.42 97 2 97 C1.67 101.62 1.34 106.24 1 111 C3.124375 111.144375 5.24875 111.28875 7.4375 111.4375 C13.875 111.875 13.875 111.875 15 113 C15.23527773 115.34987262 15.41386417 117.70556039 15.5625 120.0625 C15.64628906 121.35285156 15.73007813 122.64320312 15.81640625 123.97265625 C15.87699219 124.97167969 15.93757812 125.97070312 16 127 C10.555 128.485 10.555 128.485 5 130 C5.309375 131.381875 5.61875 132.76375 5.9375 134.1875 C6.66806165 137.45067537 7.35315893 140.71917545 8 144 C9.01320313 143.7834375 9.01320313 143.7834375 10.046875 143.5625 C10.93890625 143.376875 11.8309375 143.19125 12.75 143 C13.63171875 142.814375 14.5134375 142.62875 15.421875 142.4375 C18 142 18 142 22 142 C22.67408308 143.26691507 23.33900497 144.53870749 24 145.8125 C24.37125 146.52019531 24.7425 147.22789062 25.125 147.95703125 C26 150 26 150 26 153 C24.03125 154.60546875 24.03125 154.60546875 21.5 156.1875 C20.6646875 156.71730469 19.829375 157.24710938 18.96875 157.79296875 C18.3190625 158.19128906 17.669375 158.58960938 17 159 C18.21299612 162.28189138 19.53501481 165.00751987 21.625 167.8125 C22.40875 168.864375 23.1925 169.91625 24 171 C24.886875 170.401875 25.77375 169.80375 26.6875 169.1875 C29.42215231 167.38159753 32.17623048 165.66104089 35 164 C35.40992188 164.433125 35.81984375 164.86625 36.2421875 165.3125 C36.78101563 165.869375 37.31984375 166.42625 37.875 167 C38.40867188 167.556875 38.94234375 168.11375 39.4921875 168.6875 C40.91824988 170.21885522 40.91824988 170.21885522 43 170 C44.62514468 168.54166642 44.62514468 168.54166642 46 167 C44.87757899 173.73452605 42.66858315 178.98488332 39.51171875 185.0234375 C37.77985494 188.43346391 36.38555778 191.89981843 35.01171875 195.46484375 C33.18090549 200.05248008 31.07808529 204.5201932 29 209 C30.2375 208.38125 30.2375 208.38125 31.5 207.75 C32.655 207.1725 33.81 206.595 35 206 C35.59167969 205.67515625 36.18335938 205.3503125 36.79296875 205.015625 C46.03554276 200.06084306 55.33813435 198.45691155 65.75 198.5625 C66.79333496 198.56934814 67.83666992 198.57619629 68.91162109 198.58325195 C78.32682101 198.77755234 88.99813332 199.39762792 96.6875 205.5 C97.450625 206.325 98.21375 207.15 99 208 C101.60097358 210.67747281 103.63135128 212.41352021 107 214 C105.59511574 213.98881386 105.59511574 213.98881386 104.16184998 213.97740173 C95.31935901 213.91288021 86.47786973 213.89583853 77.63517666 213.92484188 C73.08923681 213.9382381 68.5445772 213.93512147 63.9987793 213.89379883 C59.60851105 213.8545053 55.22025805 213.85920015 50.82997322 213.89392281 C49.15829368 213.89950591 47.48648382 213.88944956 45.81500053 213.86323357 C36.77549414 213.46536256 36.77549414 213.46536256 28.65579224 216.69021606 C26.53879184 219.24566415 26.53879184 219.24566415 24 224 C20.04 229.445 20.04 229.445 16 235 C38.77 235.33 61.54 235.66 85 236 C85 236.33 85 236.66 85 237 C56.95 237 28.9 237 0 237 C0 158.79 0 80.58 0 0 Z " fill="#FCFCFC" transform="translate(0,0)"/>
<path d="M0 0 C-2.89274662 1.92849775 -5.45637698 3.00885159 -8.6875 4.25 C-23.01449637 10.16053409 -29.98060492 20.09954125 -36 34 C-38.94350205 42.99619998 -39.19919089 50.93251384 -35.265625 59.64453125 C-31.38116691 66.87393936 -26.97727504 72.34090832 -19 75 C-10.42109197 75.62077508 -3.38845528 75.82511365 4 71 C4 70.01 4 69.02 4 68 C0.37 66.68 -3.26 65.36 -7 64 C-7.33 65.65 -7.66 67.3 -8 69 C-10 71 -10 71 -11.98828125 71.08203125 C-16.80567231 70.52337582 -19.86412904 69.642362 -24 67 C-26.70953551 66.74803871 -26.70953551 66.74803871 -29 67 C-27.76176234 61.2215576 -24.83989536 58.13470016 -20 55 C-15.89263024 53.52679135 -13.07568619 54.59203568 -9 56 C-8.01 56.66 -7.02 57.32 -6 58 C-5.8125 60.625 -5.8125 60.625 -6 63 C-3.03 63.33 -0.06 63.66 3 64 C-2.35742807 55.59348907 -8.27990681 47.41055901 -18 44 C-17.505 43.01 -17.505 43.01 -17 42 C-12.19030237 43.33803618 -8.48575074 45.41817837 -4.5625 48.4375 C-3.99700439 48.86981934 -3.43150879 49.30213867 -2.84887695 49.74755859 C2.43461207 53.99103851 5.86488135 59.00337305 9 65 C9.08333357 60.1666528 8.95261487 55.76307437 8 51 C7.34 51 6.68 51 6 51 C5.484375 49.80375 4.96875 48.6075 4.4375 47.375 C1.52616307 41.57290096 -2.42512794 38.02994883 -8.4375 35.625 C-9.283125 35.41875 -10.12875 35.2125 -11 35 C-11.144375 35.639375 -11.28875 36.27875 -11.4375 36.9375 C-12 39 -12 39 -13 40 C-18.86727726 40.57522326 -21.25669729 39.26102062 -26 36 C-29.73225344 35.20317197 -29.73225344 35.20317197 -33 35 C-31.98481053 29.67025528 -29.66888305 27.13292781 -25.359375 24.13671875 C-21.35024848 22.20516939 -17.32142228 22.05193287 -13 23 C-10.703125 24.16015625 -10.703125 24.16015625 -9 26 C-9.04125 26.97195312 -9.0825 27.94390625 -9.125 28.9453125 C-9.08375 29.95335938 -9.0425 30.96140625 -9 32 C-6.37984227 34.25571209 -6.37984227 34.25571209 -3 35.875 C-1.88625 36.47054687 -0.7725 37.06609375 0.375 37.6796875 C1.24125 38.11539063 2.1075 38.55109375 3 39 C2.55527344 38.22914062 2.11054687 37.45828125 1.65234375 36.6640625 C1.08644531 35.66117188 0.52054687 34.65828125 -0.0625 33.625 C-0.63097656 32.62726563 -1.19945312 31.62953125 -1.78515625 30.6015625 C-2.18605469 29.74304688 -2.58695313 28.88453125 -3 28 C-2.67 27.34 -2.34 26.68 -2 26 C4.04993719 31.24447218 7.3919921 36.87198439 11 44 C11.33 39.71 11.66 35.42 12 31 C12.33 31 12.66 31 13 31 C13 35.29 13 39.58 13 44 C13.66 44 14.32 44 15 44 C15.13019531 43.41863281 15.26039062 42.83726563 15.39453125 42.23828125 C17.18268147 35.62789366 20.96578817 29.63147489 26 25 C26.99 24.67 27.98 24.34 29 24 C27.7964814 26.73526955 26.28541355 28.9997153 24.5 31.375 C22.25966958 34.43480232 20.9900201 37.30992509 20 41 C20.53109375 40.51789063 21.0621875 40.03578125 21.609375 39.5390625 C22.31578125 38.90742187 23.0221875 38.27578125 23.75 37.625 C24.44609375 36.99851563 25.1421875 36.37203125 25.859375 35.7265625 C28 34 28 34 30.1953125 32.9609375 C32.35169616 32.06808984 32.35169616 32.06808984 33.125 29 C33.41375 28.01 33.7025 27.02 34 26 C36.38370909 23.61629091 36.9936599 23.70411398 40.25 23.6875 C46.76248068 23.84405002 51.24931541 26.65651695 56 31 C56.495 32.485 56.495 32.485 57 34 C55.7625 34.2475 54.525 34.495 53.25 34.75 C50.24702066 35.48102299 49.17980167 35.82019833 46.9375 38.0625 C44.13600475 40.86399525 41.88387927 40.93064501 38 41 C35.625 39.8125 35.625 39.8125 34 38 C33.62372293 36.67814356 33.28397614 35.34471054 33 34 C25.75198663 38.45302782 19.68080517 42.54057035 17 51 C16.75917126 54.58430945 16.75917126 54.58430945 16.875 58.3125 C16.89304687 59.56675781 16.91109375 60.82101563 16.9296875 62.11328125 C16.95289062 63.06589844 16.97609375 64.01851563 17 65 C17.70962891 63.7315625 17.70962891 63.7315625 18.43359375 62.4375 C23.59923331 53.5763639 28.90199453 45.59000895 39 42 C39 42.66 39 43.32 39 44 C37.83370548 45.06860995 36.61494068 46.0802998 35.375 47.0625 C30.0738122 51.56333085 25.37123403 57.01773939 24 64 C24.598125 63.67 25.19625 63.34 25.8125 63 C28 62 28 62 31 62 C30.9175 61.071875 30.835 60.14375 30.75 59.1875 C31 56 31 56 32.4375 54.0625 C36.42760362 52.40806679 39.88902866 52.82441894 44 54 C47.67953134 56.09258759 50.67782095 58.90124495 52 63 C52 64.32 52 65.64 52 67 C50.96875 67.0825 49.9375 67.165 48.875 67.25 C44.92560134 67.74978569 44.92560134 67.74978569 41.875 70.125 C39 72 39 72 36.3125 71.9375 C33.78288502 70.91198042 32.53454678 70.26143736 31 68 C30.8125 65.3125 30.8125 65.3125 31 63 C25.12207611 66.00936046 25.12207611 66.00936046 21.5 71.3125 C21.335 72.199375 21.17 73.08625 21 74 C22.175625 74.4640625 22.175625 74.4640625 23.375 74.9375 C26 76 26 76 28 77 C36.17557649 78.14002063 42.83112723 75.83476107 50 72 C56.57059514 67.00063413 61.60367092 58.09870868 63 50 C64.22020581 36.76839325 59.88291038 26.5234912 52 16 C51.01 15.505 51.01 15.505 50 15 C50 14.34 50 13.68 50 13 C56.74073241 15.64814488 60.03356207 22.78036848 63 29 C67.53070285 40.45260998 66.55705508 49.61441656 62 61 C57.44792189 69.80243347 51.11165062 75.92233836 41.74609375 79.30078125 C35.95569453 80.77515033 30.02392893 81.34448533 24.4609375 78.87109375 C22.25 77.5 22.25 77.5 19 75 C18.67 79.62 18.34 84.24 18 89 C20.2584375 88.01 20.2584375 88.01 22.5625 87 C31.86693209 83.33817168 39.91976315 85.54203191 48.9375 89.1875 C51.99963143 91.87846398 53.56236793 95.21718042 55 99 C55 99.66 55 100.32 55 101 C54.34 101 53.68 101 53 101 C53.515625 101.9075 54.03125 102.815 54.5625 103.75 C56 107 56 107 55.48632812 108.92382812 C54.8428666 111.67081448 55.51777466 112.91093252 56.65625 115.46875 C58.29576759 119.31119328 59.81596669 123.1580258 61.21875 127.09375 C61.59386719 128.14433594 61.96898437 129.19492188 62.35546875 130.27734375 C63.11848958 132.42578125 63.88151042 134.57421875 64.64453125 136.72265625 C66.4355553 141.73875453 68.24655033 146.74645789 70.15625 151.71875 C70.46369141 152.52248047 70.77113281 153.32621094 71.08789062 154.15429688 C71.85820483 156.18065533 71.85820483 156.18065533 74 157 C73.08560445 154.68657925 72.16870993 152.37420762 71.25 150.0625 C70.97921631 149.37824951 70.70843262 148.69399902 70.42944336 147.98901367 C68.64534907 143.51318364 66.73261664 139.1389672 64.56640625 134.83203125 C63.85980045 132.54652696 64.3571114 131.26403497 65 129 C75 154 75 154 76.02392578 156.80981445 C76.79425503 159.16167954 76.79425503 159.16167954 79 160 C78.67 157.69 78.34 155.38 78 153 C80.27339111 155.88185755 82.07542568 158.79708007 83.75 162.0625 C84.19859375 162.91972656 84.6471875 163.77695313 85.109375 164.66015625 C86 167 86 167 85 170 C84.53851563 169.68546875 84.07703125 169.3709375 83.6015625 169.046875 C74.10187336 162.81387738 63.46994865 158.59834739 52 158.625 C51.26595947 158.62661133 50.53191895 158.62822266 49.77563477 158.62988281 C39.1268168 158.86334427 25.53091211 161.306414 17.875 169.1875 C16 171 16 171 13.0625 172.0625 C10 172 10 172 7.4375 169.8125 C6.633125 168.884375 5.82875 167.95625 5 167 C-5.24435419 157.76590219 -20.28097197 158.23996842 -33.29296875 158.6171875 C-43.75286456 159.16327958 -52.41173967 161.97855709 -61.109375 167.92578125 C-61.73328125 168.28027344 -62.3571875 168.63476562 -63 169 C-63.66 168.67 -64.32 168.34 -65 168 C-61.71384277 160.42628259 -58.42500249 152.85879181 -54.9375 145.375 C-52.84733039 140.88891789 -50.86507018 136.37081009 -48.9375 131.8125 C-47.22682571 127.77637786 -45.45298203 123.82989967 -43.4375 119.9375 C-41.50647741 116.18650403 -39.96930855 112.39227442 -38.5 108.4375 C-35.14655646 99.56811195 -32.0087121 91.51146428 -23.07421875 87.03515625 C-15.93703485 84.20376885 -7.59748082 83.55637802 -0.23828125 85.8671875 C1.91485359 86.81720191 3.95653529 87.83564596 6 89 C6.66 89.33 7.32 89.66 8 90 C7.01 81.585 7.01 81.585 6 73 C3.710625 74.2375 3.710625 74.2375 1.375 75.5 C-6.21706713 78.91985006 -13.83625662 79.53364585 -21.8671875 77.1484375 C-30.25672194 73.39992211 -35.12808939 67.40220668 -38.9375 59.1875 C-43.27153905 47.66845935 -40.55267167 37.96454956 -36 27 C-29.5686063 14.20455704 -20.65408443 5.89475401 -7.32421875 0.62890625 C-4.7913205 -0.05646622 -2.61215165 -0.11558193 0 0 Z " fill="#070707" transform="translate(93,41)"/>
<path d="M0 0 C1.39456452 0.00667256 2.78911118 0.01863093 4.18359375 0.03515625 C5.2499707 0.04192383 5.2499707 0.04192383 6.33789062 0.04882812 C8.09899388 0.06064761 9.86005411 0.07858362 11.62109375 0.09765625 C12.11609375 7.02765625 12.11609375 7.02765625 12.62109375 14.09765625 C17.24109375 14.75765625 21.86109375 15.41765625 26.62109375 16.09765625 C26.76546875 14.65390625 26.90984375 13.21015625 27.05859375 11.72265625 C27.49609375 7.34765625 27.49609375 7.34765625 28.62109375 5.09765625 C34.28213964 5.59423922 38.49783846 6.64276309 43.62109375 9.09765625 C43.14452963 10.89001692 42.66475877 12.68152522 42.18359375 14.47265625 C41.91675781 15.47039063 41.64992187 16.468125 41.375 17.49609375 C40.62109375 20.09765625 40.62109375 20.09765625 39.62109375 22.09765625 C40.50796875 22.36578125 41.39484375 22.63390625 42.30859375 22.91015625 C45.39254605 24.01572405 47.84093805 25.39867221 50.62109375 27.09765625 C51.28109375 27.09765625 51.94109375 27.09765625 52.62109375 27.09765625 C54.21078622 25.07974289 54.21078622 25.07974289 55.74609375 22.59765625 C56.28492188 21.76234375 56.82375 20.92703125 57.37890625 20.06640625 C57.78882813 19.41671875 58.19875 18.76703125 58.62109375 18.09765625 C62.06059739 18.70964001 64.1367386 20.01824472 66.87109375 22.16015625 C67.5775 22.70800781 68.28390625 23.25585938 69.01171875 23.8203125 C69.80835938 24.45259766 69.80835938 24.45259766 70.62109375 25.09765625 C70.00351435 28.14613331 69.37871816 29.43983356 67.49609375 32.09765625 C65.39780416 34.79131319 65.39780416 34.79131319 65.78125 37.08203125 C66.82161333 39.57890323 68.08129292 40.66581559 70.18359375 42.34765625 C71.31796875 43.25515625 72.45234375 44.16265625 73.62109375 45.09765625 C76.26109375 42.78765625 78.90109375 40.47765625 81.62109375 38.09765625 C85.42991304 40.00206589 86.49556232 40.83429994 88.87109375 44.09765625 C89.65226562 45.14953125 89.65226562 45.14953125 90.44921875 46.22265625 C91.62109375 48.09765625 91.62109375 48.09765625 91.62109375 50.09765625 C89.65234375 51.82421875 89.65234375 51.82421875 87.12109375 53.72265625 C86.28578125 54.35429688 85.45046875 54.9859375 84.58984375 55.63671875 C83.94015625 56.11882813 83.29046875 56.6009375 82.62109375 57.09765625 C83.05421875 58.03738281 83.05421875 58.03738281 83.49609375 58.99609375 C83.86734375 59.81335937 84.23859375 60.630625 84.62109375 61.47265625 C84.99234375 62.28476562 85.36359375 63.096875 85.74609375 63.93359375 C86.62109375 66.09765625 86.62109375 66.09765625 86.62109375 68.09765625 C87.39195312 67.80890625 88.1628125 67.52015625 88.95703125 67.22265625 C89.95992187 66.85140625 90.9628125 66.48015625 91.99609375 66.09765625 C92.99382812 65.72640625 93.9915625 65.35515625 95.01953125 64.97265625 C97.62109375 64.09765625 97.62109375 64.09765625 99.62109375 64.09765625 C102.88466834 68.31310677 103.67307157 72.97833646 104.62109375 78.09765625 C103.18680374 78.77120124 101.74852318 79.43625326 100.30859375 80.09765625 C99.50808594 80.46890625 98.70757812 80.84015625 97.8828125 81.22265625 C95.62109375 82.09765625 95.62109375 82.09765625 92.62109375 82.09765625 C92.83765625 82.95037109 92.83765625 82.95037109 93.05859375 83.8203125 C93.24421875 84.59246094 93.42984375 85.36460938 93.62109375 86.16015625 C93.80671875 86.91425781 93.99234375 87.66835937 94.18359375 88.4453125 C94.62109375 91.09765625 94.62109375 91.09765625 94.62109375 98.09765625 C99.24109375 97.76765625 103.86109375 97.43765625 108.62109375 97.09765625 C108.62109375 102.04765625 108.62109375 106.99765625 108.62109375 112.09765625 C104.00109375 112.42765625 99.38109375 112.75765625 94.62109375 113.09765625 C94.65203125 115.17046875 94.65203125 115.17046875 94.68359375 117.28515625 C94.68896518 120.69064159 94.4767992 123.78179762 93.62109375 127.09765625 C94.85859375 127.24203125 96.09609375 127.38640625 97.37109375 127.53515625 C100.19488938 127.86459907 102.87425936 128.36145514 105.62109375 129.09765625 C105.25605311 134.76207999 104.56566165 139.1046933 101.62109375 144.09765625 C101.0178125 143.95328125 100.41453125 143.80890625 99.79296875 143.66015625 C98.99375 143.47453125 98.19453125 143.28890625 97.37109375 143.09765625 C96.5821875 142.91203125 95.79328125 142.72640625 94.98046875 142.53515625 C92.36553373 141.97610797 92.36553373 141.97610797 88.62109375 142.09765625 C86.14609375 147.54265625 86.14609375 147.54265625 83.62109375 153.09765625 C86.92109375 155.07765625 90.22109375 157.05765625 93.62109375 159.09765625 C91.67481536 163.96335223 89.70025136 166.96510262 86.62109375 171.09765625 C82.50323289 169.64429359 79.24123466 167.51108352 75.62109375 165.09765625 C74.96109375 165.09765625 74.30109375 165.09765625 73.62109375 165.09765625 C71.81415619 166.88377936 71.81415619 166.88377936 69.99609375 169.09765625 C69.36445313 169.84015625 68.7328125 170.58265625 68.08203125 171.34765625 C67.59992188 171.92515625 67.1178125 172.50265625 66.62109375 173.09765625 C65.63109375 172.76765625 64.64109375 172.43765625 63.62109375 172.09765625 C62.26953125 169.11328125 62.26953125 169.11328125 60.99609375 165.34765625 C60.35800781 163.49914062 60.35800781 163.49914062 59.70703125 161.61328125 C57.78819074 155.40120767 57.78819074 155.40120767 57.62109375 153.09765625 C58.80859375 151.3515625 58.80859375 151.3515625 60.62109375 149.66015625 C68.53082145 141.26002543 72.53164446 130.28424632 74.62109375 119.09765625 C74.89566406 117.6590625 74.89566406 117.6590625 75.17578125 116.19140625 C77.95942028 96.85244037 72.56575707 78.0873407 61.62109375 62.09765625 C58.19442858 57.44089418 58.19442858 57.44089418 53.62109375 54.09765625 C53.62109375 53.43765625 53.62109375 52.77765625 53.62109375 52.09765625 C53.04875 51.83339844 52.47640625 51.56914063 51.88671875 51.296875 C49.49731141 50.03213698 47.51836746 48.55064333 45.37109375 46.91015625 C28.97906037 35.35353095 10.64583351 32.35920435 -9.015625 34.4921875 C-26.44889527 37.57332421 -42.90797712 47.80762011 -53.37890625 62.09765625 C-65.25269745 79.70273628 -68.76977013 99.02759132 -65.84765625 119.890625 C-63.05336545 131.62968364 -57.28832284 142.97140634 -49.37890625 152.09765625 C-50.92275754 156.23798471 -52.88919563 160.03318678 -55.00390625 163.91015625 C-55.32875 164.50763672 -55.65359375 165.10511719 -55.98828125 165.72070312 C-56.78269776 167.1810276 -57.58046001 168.63953116 -58.37890625 170.09765625 C-61.78102924 168.48382868 -64.48215144 166.51161859 -67.37890625 164.09765625 C-70.34890625 166.40765625 -73.31890625 168.71765625 -76.37890625 171.09765625 C-79.95993466 167.71557386 -82.94664099 164.40089479 -85.37890625 160.09765625 C-84.27795263 156.79479539 -83.68930435 156.31254724 -80.94140625 154.41015625 C-80.32394531 153.97316406 -79.70648438 153.53617188 -79.0703125 153.0859375 C-77.37890625 152.09765625 -77.37890625 152.09765625 -75.37890625 152.09765625 C-75.66765625 151.47117188 -75.95640625 150.8446875 -76.25390625 150.19921875 C-76.81078125 148.97332031 -76.81078125 148.97332031 -77.37890625 147.72265625 C-77.93578125 146.50449219 -77.93578125 146.50449219 -78.50390625 145.26171875 C-79.37890625 143.09765625 -79.37890625 143.09765625 -79.37890625 141.09765625 C-80.39210938 141.31421875 -80.39210938 141.31421875 -81.42578125 141.53515625 C-82.3178125 141.72078125 -83.20984375 141.90640625 -84.12890625 142.09765625 C-85.010625 142.28328125 -85.89234375 142.46890625 -86.80078125 142.66015625 C-89.37890625 143.09765625 -89.37890625 143.09765625 -93.37890625 143.09765625 C-95.60546789 138.35411189 -96.84038657 134.3751491 -97.37890625 129.09765625 C-93.55373112 126.7069218 -89.78225101 126.53799073 -85.37890625 126.09765625 C-86.03890625 121.47765625 -86.69890625 116.85765625 -87.37890625 112.09765625 C-91.66890625 111.43765625 -95.95890625 110.77765625 -100.37890625 110.09765625 C-100.37890625 105.47765625 -100.37890625 100.85765625 -100.37890625 96.09765625 C-95.65858508 94.52421586 -91.30073268 95.57652169 -86.37890625 96.09765625 C-86.04890625 91.80765625 -85.71890625 87.51765625 -85.37890625 83.09765625 C-87.00828125 82.68515625 -88.63765625 82.27265625 -90.31640625 81.84765625 C-93.09375 81.14453125 -93.09375 81.14453125 -95.37890625 80.09765625 C-96.65159219 77.59617009 -96.41341057 76.25690698 -95.8203125 73.51953125 C-95.53027344 72.6378125 -95.24023438 71.75609375 -94.94140625 70.84765625 C-94.65394531 69.955625 -94.36648437 69.06359375 -94.0703125 68.14453125 C-93.84214844 67.4690625 -93.61398438 66.79359375 -93.37890625 66.09765625 C-88.50994322 66.6938558 -84.05099674 67.66742447 -79.37890625 69.09765625 C-79.11078125 68.04578125 -78.84265625 66.99390625 -78.56640625 65.91015625 C-77.37890625 62.09765625 -77.37890625 62.09765625 -74.37890625 57.09765625 C-78.83390625 53.13765625 -78.83390625 53.13765625 -83.37890625 49.09765625 C-81.85679343 46.05343061 -80.42076121 43.56738062 -78.44140625 40.84765625 C-77.93738281 40.14125 -77.43335937 39.43484375 -76.9140625 38.70703125 C-76.40746094 38.1759375 -75.90085937 37.64484375 -75.37890625 37.09765625 C-72.37890625 37.09765625 -72.37890625 37.09765625 -70.5546875 38.62890625 C-69.93980469 39.27859375 -69.32492188 39.92828125 -68.69140625 40.59765625 C-68.06878906 41.24734375 -67.44617188 41.89703125 -66.8046875 42.56640625 C-66.33417969 43.07171875 -65.86367187 43.57703125 -65.37890625 44.09765625 C-64.22371707 43.19280833 -63.08005219 42.27323565 -61.94140625 41.34765625 C-61.30332031 40.8371875 -60.66523437 40.32671875 -60.0078125 39.80078125 C-58.12153847 37.82856188 -57.49847425 36.82692576 -57.37890625 34.09765625 C-58.60241121 31.98348005 -58.60241121 31.98348005 -60.37890625 30.03515625 C-62.12890625 28 -62.12890625 28 -63.37890625 26.09765625 C-62.18595492 22.51880226 -61.13423563 21.91630716 -58.06640625 19.84765625 C-57.28652344 19.30625 -56.50664063 18.76484375 -55.703125 18.20703125 C-53.37890625 17.09765625 -53.37890625 17.09765625 -51.2578125 17.2109375 C-48.94894646 18.30056867 -48.04888732 19.42709793 -46.62890625 21.53515625 C-46.2009375 22.15261719 -45.77296875 22.77007813 -45.33203125 23.40625 C-44.37890625 25.09765625 -44.37890625 25.09765625 -44.37890625 27.09765625 C-43.34830078 26.55625 -43.34830078 26.55625 -42.296875 26.00390625 C-41.39582031 25.53984375 -40.49476562 25.07578125 -39.56640625 24.59765625 C-38.67308594 24.13359375 -37.77976563 23.66953125 -36.859375 23.19140625 C-34.37890625 22.09765625 -34.37890625 22.09765625 -31.37890625 22.09765625 C-31.66765625 21.33839844 -31.95640625 20.57914063 -32.25390625 19.796875 C-32.81078125 18.30607422 -32.81078125 18.30607422 -33.37890625 16.78515625 C-33.75015625 15.79902344 -34.12140625 14.81289062 -34.50390625 13.796875 C-35.37890625 11.09765625 -35.37890625 11.09765625 -35.37890625 8.09765625 C-29.8299941 5.27916119 -25.63756025 3.56500485 -19.37890625 4.09765625 C-18.87330717 5.5331965 -18.37463135 6.97117645 -17.87890625 8.41015625 C-17.60046875 9.21066406 -17.32203125 10.01117188 -17.03515625 10.8359375 C-16.37890625 13.09765625 -16.37890625 13.09765625 -16.37890625 16.09765625 C-12.08890625 15.43765625 -7.79890625 14.77765625 -3.37890625 14.09765625 C-3.87390625 13.10765625 -3.87390625 13.10765625 -4.37890625 12.09765625 C-4.47475604 10.24549995 -4.50874231 8.38978472 -4.50390625 6.53515625 C-4.50648437 5.54386719 -4.5090625 4.55257813 -4.51171875 3.53125 C-4.30450167 -0.26569832 -3.92701717 0.11349761 0 0 Z " fill="#060606" transform="translate(101.37890625,0.90234375)"/>
<path d="M0 0 C2.28093174 1.55268245 4.03174455 3.03174455 6 5 C6 5.99 6 6.98 6 8 C7.485 8.495 7.485 8.495 9 9 C16.77436593 19.53301191 21.497648 29.72539269 20 43 C17.9774408 51.81257936 13.78424522 60.95097326 5.984375 65.921875 C-1.42359418 69.67954053 -7.63972362 71.97241885 -16 71 C-18.66052787 69.92356735 -20.62353416 68.65319362 -23 67 C-22.73821412 63.16047378 -22.45624385 61.45624385 -19.6875 58.6875 C-17.33233998 57.20867859 -15.71737139 56.40257354 -13 56 C-12.505 59.465 -12.505 59.465 -12 63 C-8.78020634 63.86654873 -8.78020634 63.86654873 -5 64 C-2.98079663 62.69593116 -0.98075027 61.36176581 1 60 C4.875 59.75 4.875 59.75 8 60 C5.75307632 52.71242051 5.75307632 52.71242051 0 48 C-3.00731448 47.28523335 -5.90747773 46.82626279 -9 47 C-9.99 47.66 -10.98 48.32 -12 49 C-12.0928125 50.4540625 -12.0928125 50.4540625 -12.1875 51.9375 C-12.5896875 53.4534375 -12.5896875 53.4534375 -13 55 C-15.53950886 56.46427 -18.17185911 57.26558528 -21 58 C-19.31583814 49.2049325 -13.37434744 42.98802335 -7 37 C-15.99067515 41.19697446 -20.63701973 48.07639238 -25.43359375 56.40234375 C-25.95050781 57.25957031 -26.46742187 58.11679688 -27 59 C-27.33 59 -27.66 59 -28 59 C-28.0816082 56.62429457 -28.14077222 54.25144159 -28.1875 51.875 C-28.21263672 51.20984375 -28.23777344 50.5446875 -28.26367188 49.859375 C-28.37002451 42.62739601 -25.38639995 37.91301502 -20.7578125 32.6796875 C-18.25461827 30.28774635 -13.66981282 26 -10 26 C-9.01 28.97 -9.01 28.97 -8 32 C-3.3709597 32.90765496 -0.17006403 33.45297884 4 31 C4.33 30.01 4.66 29.02 5 28 C8.5625 26.8125 8.5625 26.8125 12 26 C8.11218095 21.76913809 4.60706878 18.38995338 -1.3125 17.75 C-3.60362592 17.69125318 -5.73383694 17.65101089 -8 18 C-10.23633324 19.86895888 -10.23633324 19.86895888 -10.5625 22.75 C-12.42615828 26.96348829 -14.85430379 28.2644018 -18.7109375 30.60546875 C-20.92058798 31.951621 -22.955236 33.41740868 -25 35 C-23.85665818 29.51195928 -21.84636792 26.0630838 -18.33984375 21.69921875 C-16.93053541 20.02993107 -16.93053541 20.02993107 -16 18 C-20.94121837 22.65886303 -25.1301321 27.45880791 -27.5625 33.875 C-28.036875 34.90625 -28.51125 35.9375 -29 37 C-31.08984375 37.6953125 -31.08984375 37.6953125 -33 38 C-33.51949219 37.10796875 -34.03898437 36.2159375 -34.57421875 35.296875 C-35.27814229 34.11428346 -35.98259776 32.93200843 -36.6875 31.75 C-37.02716797 31.16347656 -37.36683594 30.57695313 -37.71679688 29.97265625 C-40.01109205 26.15597829 -42.36974071 23.56851971 -46 21 C-45.55527344 21.69867188 -45.11054687 22.39734375 -44.65234375 23.1171875 C-44.08644531 24.02726562 -43.52054688 24.93734375 -42.9375 25.875 C-42.36902344 26.77992187 -41.80054688 27.68484375 -41.21484375 28.6171875 C-40.81394531 29.40351562 -40.41304687 30.18984375 -40 31 C-40.495 31.99 -40.495 31.99 -41 33 C-45.29 30.69 -49.58 28.38 -54 26 C-53.67 23.69 -53.34 21.38 -53 19 C-57.58292155 16.37667249 -61.83200615 16.2287763 -67 17 C-71.3279845 18.87438734 -73.56901319 21.26315158 -75.9375 25.3125 C-76.288125 26.199375 -76.63875 27.08625 -77 28 C-75.96875 27.9175 -74.9375 27.835 -73.875 27.75 C-69.33276155 28.04304764 -67.71676091 29.52215939 -64 32 C-60.24870163 32.33524876 -60.24870163 32.33524876 -57 32 C-56.34 30.68 -55.68 29.36 -55 28 C-49.09210209 28 -46.09636347 31.1388406 -41.953125 34.89453125 C-39.14101517 37.92598565 -38 39.84304859 -38 44 C-37.34 44 -36.68 44 -36 44 C-33.72858546 49.39460953 -33.79586639 54.26157749 -34 60 C-35.58077837 57.94875187 -37.0628858 55.89951943 -38.4375 53.703125 C-42.92504577 46.65767815 -49.08151222 39.81420982 -57.33203125 37.28515625 C-57.88246094 37.19105469 -58.43289062 37.09695312 -59 37 C-58.50371094 37.3403125 -58.00742188 37.680625 -57.49609375 38.03125 C-49.85672166 43.48173179 -44.33343275 49.67980913 -40 58 C-43.3 57.34 -46.6 56.68 -50 56 C-50 54.35 -50 52.7 -50 51 C-56.8206457 48.14690228 -56.8206457 48.14690228 -63.875 49 C-68.35638429 51.86808594 -70.85532195 55.1744744 -73 60 C-72.278125 59.773125 -71.55625 59.54625 -70.8125 59.3125 C-68 59 -68 59 -65.75 60.375 C-61.95717033 62.61621753 -58.3345457 62.72613981 -54 63 C-53.01 61.02 -52.02 59.04 -51 57 C-49.5608866 57.28359887 -48.12374482 57.57721399 -46.6875 57.875 C-45.88699219 58.03742188 -45.08648437 58.19984375 -44.26171875 58.3671875 C-42 59 -42 59 -39 61 C-39.59690159 64.64263024 -39.8738749 64.90918993 -43.125 67.25 C-49.9297075 70.34528211 -58.38572178 70.20156089 -65.53515625 68.33984375 C-73.92927408 64.6037335 -78.60258622 56.27431032 -82.25 48.25 C-85.06326158 36.05919982 -81.38554175 25.69408339 -75.1875 15.1875 C-67.91305265 4.00220297 -59.59176749 -1.48477025 -47 -6 C-46.01 -6 -45.02 -6 -44 -6 C-44 -6.66 -44 -7.32 -44 -8 C-29.54701431 -12.51197269 -12.46621385 -7.55735675 0 0 Z " fill="#F2F2F2" transform="translate(137,48)"/>
<path d="M0 0 C1.59719564 -0.01395152 1.59719564 -0.01395152 3.22665787 -0.02818489 C5.06036942 -0.05811028 5.06036942 -0.05811028 6.93112564 -0.08864021 C8.28811975 -0.09043186 9.64511454 -0.09175898 11.00210953 -0.09266853 C12.42961743 -0.10790998 13.85710889 -0.12476469 15.28458023 -0.14311409 C19.16494567 -0.18704457 23.04499589 -0.20460744 26.92558193 -0.21476698 C29.35072892 -0.22205129 31.77579318 -0.23452995 34.20090866 -0.24876976 C42.66397608 -0.29777869 51.1267981 -0.32386545 59.59000015 -0.33094978 C67.47439076 -0.33821621 75.35722214 -0.39796517 83.24113631 -0.48175895 C90.01242959 -0.55119937 96.78320681 -0.58204724 103.55485368 -0.58344185 C107.59830555 -0.58502692 111.64017078 -0.60246813 115.68325424 -0.65943718 C119.48933268 -0.71186522 123.29251396 -0.71618518 127.09878922 -0.6841259 C128.4923905 -0.68050091 129.8861594 -0.6938468 131.27939987 -0.72576332 C141.64362079 -0.94863311 141.64362079 -0.94863311 145.58579636 2.40473366 C150.01961293 8.43650927 153.07829811 15.93617347 156.37027359 22.52012444 C98.62027359 22.52012444 40.87027359 22.52012444 -18.62972641 22.52012444 C-10.85194863 10.29790221 -10.85194863 10.29790221 -6.98910141 6.05528069 C-5.53902501 4.51545438 -5.53902501 4.51545438 -4.41078949 2.4584465 C-2.62972641 0.52012444 -2.62972641 0.52012444 0 0 Z " fill="#060606" transform="translate(33.62972640991211,213.4798755645752)"/>
<path d="M0 0 C1.96596976 2.76335609 2.92438443 5.80178184 4 9 C4.2254248 9.66612305 4.45084961 10.33224609 4.68310547 11.01855469 C5.71158759 14.06585954 6.73545891 17.11387446 7.71899414 20.17602539 C8.9977285 24.13823356 10.38056175 28.01518697 11.953125 31.87109375 C14.12638823 37.21369918 15.95670695 42.64506588 17.75 48.125 C18.22373047 49.55972656 18.22373047 49.55972656 18.70703125 51.0234375 C19.47415429 53.34805276 20.23843282 55.67355994 21 58 C19.89785156 57.97679687 18.79570312 57.95359375 17.66015625 57.9296875 C2.47297866 57.70689272 -11.70624218 58.4413164 -26 64 C-27.485 64.495 -27.485 64.495 -29 65 C-29 65.99 -29 66.98 -29 68 C-29.99 68 -30.98 68 -32 68 C-34.43686184 63.12627633 -33.83746043 55.34612952 -33 50 C-31.46588498 46.75286442 -29.6558151 44.40288033 -27 42 C-22.25981099 43.83491188 -17.63586749 45.91941459 -13 48 C-13 47.34 -13 46.68 -13 46 C-13.87978516 45.69835937 -13.87978516 45.69835937 -14.77734375 45.390625 C-21.15887835 41.39796012 -24.25871268 30.07343562 -25.9375 23.0625 C-27.31093917 15.68445175 -27.28269993 8.47584248 -27 1 C-18.49309192 -3.45031797 -8.55516269 -5.32679941 0 0 Z " fill="#FAFAFA" transform="translate(138,131)"/>
<path d="M0 0 C1 1 1 1 1.19140625 4.484375 C1.12436324 9.26464811 0.16686615 13.64631648 -1.0625 18.25 C-1.39423218 19.49789307 -1.39423218 19.49789307 -1.73266602 20.77099609 C-3.75422511 27.91397672 -6.80345591 33.87083692 -11 40 C-11.5878125 40.89976562 -12.175625 41.79953125 -12.78125 42.7265625 C-14.16483041 44.83456472 -15.56889706 46.92411441 -17 49 C-10.66648668 45.58409572 -10.66648668 45.58409572 -4.625 41.6875 C-2 40 -2 40 1 40 C1.474375 41.11375 1.94875 42.2275 2.4375 43.375 C3.25306463 45.26710994 4.07856355 47.15712709 5 49 C5.12413998 51.67911399 5.18515807 54.32083099 5.1875 57 C5.19974609 57.73734375 5.21199219 58.4746875 5.22460938 59.234375 C5.22987395 61.15770058 5.12203447 63.08054263 5 65 C4.34 65.66 3.68 66.32 3 67 C3 65.68 3 64.36 3 63 C-0.65801405 61.96637278 -4.32705531 60.97914946 -8 60 C-8.97582031 59.73123047 -9.95164063 59.46246094 -10.95703125 59.18554688 C-19.19345968 57.07621764 -26.83697787 56.63177536 -35.3125 56.8125 C-36.54162109 56.82603516 -37.77074219 56.83957031 -39.03710938 56.85351562 C-42.02522513 56.88839635 -45.01235873 56.93740302 -48 57 C-47.42468833 52.21205679 -46.45988154 47.88513532 -44.92578125 43.31640625 C-44.29941772 41.44069946 -44.29941772 41.44069946 -43.66040039 39.52709961 C-43.21154748 38.20541444 -42.76223962 36.8838837 -42.3125 35.5625 C-41.85590742 34.20910994 -41.39944631 32.85567552 -40.94311523 31.50219727 C-30.4597104 0.51769365 -30.4597104 0.51769365 -25.0625 -2.8125 C-16.51355624 -5.95735458 -7.69064227 -4.54862215 0 0 Z " fill="#F8F8F8" transform="translate(99,132)"/>
<path d="M0 0 C0.66 0.33 1.32 0.66 2 1 C3 4 3 4 2.25 6.625 C1 9 1 9 -2 10 C-2.83333333 11.91666667 -2.83333333 11.91666667 -3 14 C-2.67 14.66 -2.34 15.32 -2 16 C-2.67749023 18.31225586 -2.67749023 18.31225586 -3.80859375 21.21484375 C-4.22254395 22.28557129 -4.63649414 23.35629883 -5.06298828 24.45947266 C-5.51657715 25.60722168 -5.97016602 26.7549707 -6.4375 27.9375 C-6.89108887 29.10071777 -7.34467773 30.26393555 -7.81201172 31.46240234 C-11.70219839 41.38190178 -15.7802026 51.21667083 -20 61 C-16.04 59.68 -12.08 58.36 -8 57 C-9.65 57 -11.3 57 -13 57 C-13 56.34 -13 55.68 -13 55 C-12.01 55 -11.02 55 -10 55 C-10 54.34 -10 53.68 -10 53 C1.93944239 47.0302788 20.24754394 51.20050119 32.1875 55.01953125 C39.59468563 57.59468563 39.59468563 57.59468563 42 60 C42.66 60 43.32 60 44 60 C44 60.66 44 61.32 44 62 C44.99 62 45.98 62 47 62 C47 61.01 47 60.02 47 59 C53.87935133 53.49651894 63.82420049 52.49965182 72.3125 51.8125 C73.2202417 51.73209473 74.1279834 51.65168945 75.06323242 51.56884766 C82.05712162 50.98628234 88.98170132 50.76562268 96 51 C94.94110953 47.9362402 93.87784101 44.8740227 92.8125 41.8125 C92.33864868 40.45040405 92.33864868 40.45040405 91.85522461 39.06079102 C89.66034493 32.78946812 87.33897134 26.59379087 84.84765625 20.43359375 C84 18 84 18 84 15 C87 16 87 16 87.85620117 17.6003418 C88.08283447 18.29297119 88.30946777 18.98560059 88.54296875 19.69921875 C88.80819336 20.48627197 89.07341797 21.2733252 89.34667969 22.08422852 C89.62415039 22.94330811 89.90162109 23.8023877 90.1875 24.6875 C90.79959144 26.50300574 91.41292049 28.31809459 92.02734375 30.1328125 C92.34687012 31.08704102 92.66639648 32.04126953 92.99560547 33.02441406 C94.69406163 38.05620398 96.46250735 43.06176167 98.25 48.0625 C98.74342896 49.48018677 98.74342896 49.48018677 99.24682617 50.92651367 C99.72019409 52.24872925 99.72019409 52.24872925 100.203125 53.59765625 C100.47801758 54.37633057 100.75291016 55.15500488 101.03613281 55.95727539 C102.06342951 58.13442621 103.20622136 59.41671579 105 61 C104.08560445 58.68657925 103.16870993 56.37420762 102.25 54.0625 C101.97921631 53.37824951 101.70843262 52.69399902 101.42944336 51.98901367 C99.64534907 47.51318364 97.73261664 43.1389672 95.56640625 38.83203125 C94.85980045 36.54652696 95.3571114 35.26403497 96 33 C106 58 106 58 107.02392578 60.80981445 C107.79425503 63.16167954 107.79425503 63.16167954 110 64 C109.67 61.69 109.34 59.38 109 57 C111.27339111 59.88185755 113.07542568 62.79708007 114.75 66.0625 C115.19859375 66.91972656 115.6471875 67.77695313 116.109375 68.66015625 C117 71 117 71 116 74 C115.30777344 73.52820313 115.30777344 73.52820313 114.6015625 73.046875 C105.10187336 66.81387738 94.46994865 62.59834739 83 62.625 C82.26595947 62.62661133 81.53191895 62.62822266 80.77563477 62.62988281 C70.1268168 62.86334427 56.53091211 65.306414 48.875 73.1875 C47 75 47 75 44.0625 76.0625 C41 76 41 76 38.4375 73.8125 C37.633125 72.884375 36.82875 71.95625 36 71 C25.75564581 61.76590219 10.71902803 62.23996842 -2.29296875 62.6171875 C-12.75286456 63.16327958 -21.41173967 65.97855709 -30.109375 71.92578125 C-30.73328125 72.28027344 -31.3571875 72.63476562 -32 73 C-32.66 72.67 -33.32 72.34 -34 72 C-30.71384277 64.42628259 -27.42500249 56.85879181 -23.9375 49.375 C-21.8281657 44.84696237 -19.82501865 40.28641616 -17.875 35.6875 C-12.04250278 22.01234987 -12.04250278 22.01234987 -9.5144043 19.55737305 C-7.75217144 17.74513971 -6.95871235 16.08489248 -5.95703125 13.76953125 C-5.43012695 12.56586914 -5.43012695 12.56586914 -4.89257812 11.33789062 C-4.53615234 10.50451172 -4.17972656 9.67113281 -3.8125 8.8125 C-3.44447266 7.96751953 -3.07644531 7.12253906 -2.69726562 6.25195312 C-1.7918278 4.17062203 -0.89302209 2.08668118 0 0 Z " fill="#0F0F0F" transform="translate(62,137)"/>
<path d="M0 0 C0.33 1.32 0.66 2.64 1 4 C2.546875 3.87625 2.546875 3.87625 4.125 3.75 C8.66723845 4.04304764 10.28323909 5.52215939 14 8 C17.75129837 8.33524876 17.75129837 8.33524876 21 8 C21.66 6.68 22.32 5.36 23 4 C28.90789791 4 31.90363653 7.1388406 36.046875 10.89453125 C38.85898483 13.92598565 40 15.84304859 40 20 C40.66 20 41.32 20 42 20 C44.27141454 25.39460953 44.20413361 30.26157749 44 36 C42.41922163 33.94875187 40.9371142 31.89951943 39.5625 29.703125 C35.07495423 22.65767815 28.91848778 15.81420982 20.66796875 13.28515625 C19.84232422 13.14400391 19.84232422 13.14400391 19 13 C19.49628906 13.3403125 19.99257812 13.680625 20.50390625 14.03125 C28.14327834 19.48173179 33.66656725 25.67980913 38 34 C34.7 33.34 31.4 32.68 28 32 C28 30.35 28 28.7 28 27 C21.1793543 24.14690228 21.1793543 24.14690228 14.125 25 C9.64361571 27.86808594 7.14467805 31.1744744 5 36 C6.0828125 35.6596875 6.0828125 35.6596875 7.1875 35.3125 C10 35 10 35 12.25 36.375 C16.04282967 38.61621753 19.6654543 38.72613981 24 39 C24.99 37.02 25.98 35.04 27 33 C28.4391134 33.28359887 29.87625518 33.57721399 31.3125 33.875 C32.11300781 34.03742188 32.91351563 34.19984375 33.73828125 34.3671875 C36 35 36 35 39 37 C38.40309841 40.64263024 38.1261251 40.90918993 34.875 43.25 C28.0702925 46.34528211 19.61427822 46.20156089 12.46484375 44.33984375 C4.07072592 40.6037335 -0.60258622 32.27431032 -4.25 24.25 C-6.08092044 16.31601141 -5.46684335 9.3337071 -2 2 C-1.34 1.34 -0.68 0.68 0 0 Z " fill="#F6F6F6" transform="translate(59,72)"/>
<path d="M0 0 C0.66 0.33 1.32 0.66 2 1 C3 4 3 4 2.25 6.625 C1 9 1 9 -2 10 C-2.83333333 11.91666667 -2.83333333 11.91666667 -3 14 C-2.67 14.66 -2.34 15.32 -2 16 C-2.67749023 18.31225586 -2.67749023 18.31225586 -3.80859375 21.21484375 C-4.22254395 22.28557129 -4.63649414 23.35629883 -5.06298828 24.45947266 C-5.51657715 25.60722168 -5.97016602 26.7549707 -6.4375 27.9375 C-6.89108887 29.10071777 -7.34467773 30.26393555 -7.81201172 31.46240234 C-11.70219839 41.38190178 -15.7802026 51.21667083 -20 61 C-19.2265625 60.72285156 -18.453125 60.44570312 -17.65625 60.16015625 C-11.75508919 58.10789612 -6.25621402 56.27960733 0 56 C0.86753906 55.9484375 1.73507813 55.896875 2.62890625 55.84375 C14.59582057 55.46131865 26.15187429 57.97157467 37 63 C36.67 63.99 36.34 64.98 36 66 C35.443125 65.855625 34.88625 65.71125 34.3125 65.5625 C29.03910802 64.27978303 24.41443919 63.9066476 19 64 C18.01 63.67 17.02 63.34 16 63 C-0.62551037 61.73241192 -15.98300975 62.26652819 -30.109375 71.92578125 C-30.73328125 72.28027344 -31.3571875 72.63476562 -32 73 C-32.66 72.67 -33.32 72.34 -34 72 C-30.71384277 64.42628259 -27.42500249 56.85879181 -23.9375 49.375 C-21.8281657 44.84696237 -19.82501865 40.28641616 -17.875 35.6875 C-12.04250278 22.01234987 -12.04250278 22.01234987 -9.5144043 19.55737305 C-7.75217144 17.74513971 -6.95871235 16.08489248 -5.95703125 13.76953125 C-5.43012695 12.56586914 -5.43012695 12.56586914 -4.89257812 11.33789062 C-4.53615234 10.50451172 -4.17972656 9.67113281 -3.8125 8.8125 C-3.44447266 7.96751953 -3.07644531 7.12253906 -2.69726562 6.25195312 C-1.7918278 4.17062203 -0.89302209 2.08668118 0 0 Z " fill="#171717" transform="translate(62,137)"/>
<path d="M0 0 C1.65 0 3.3 0 5 0 C5.33 1.32 5.66 2.64 6 4 C18.21 4 30.42 4 43 4 C42.67 7.3 42.34 10.6 42 14 C41.01 14.33 40.02 14.66 39 15 C39 14.34 39 13.68 39 13 C38.34 13 37.68 13 37 13 C37 13.66 37 14.32 37 15 C35.68 14.67 34.36 14.34 33 14 C33.33 11.69 33.66 9.38 34 7 C33.34 7 32.68 7 32 7 C32 9.64 32 12.28 32 15 C30.02 14.34 28.04 13.68 26 13 C25.67 13.66 25.34 14.32 25 15 C24.34 15 23.68 15 23 15 C21.875 11.25 21.875 11.25 23 9 C24.98 9 26.96 9 29 9 C29 8.34 29 7.68 29 7 C26.36 7 23.72 7 21 7 C21 9.64 21 12.28 21 15 C20.34 15 19.68 15 19 15 C19 12.36 19 9.72 19 7 C18.34 7 17.68 7 17 7 C16.855625 7.804375 16.71125 8.60875 16.5625 9.4375 C16 12 16 12 15 13 C15.99 13.99 16.98 14.98 18 16 C15.03 15.505 15.03 15.505 12 15 C11.375 13.125 11.375 13.125 11 11 C11.66 10.34 12.32 9.68 13 9 C11.68 8.34 10.36 7.68 9 7 C9 9.64 9 12.28 9 15 C8.34 15 7.68 15 7 15 C7 12.03 7 9.06 7 6 C5.35 6 3.7 6 2 6 C2 6.66 2 7.32 2 8 C3.32 8.33 4.64 8.66 6 9 C5.67 10.32 5.34 11.64 5 13 C4.67 12.01 4.34 11.02 4 10 C3.34 10 2.68 10 2 10 C1.67 11.65 1.34 13.3 1 15 C0.01 14.67 -0.98 14.34 -2 14 C-3.66621616 13.96125079 -5.33394172 13.9549714 -7 14 C-8.125 9.25 -8.125 9.25 -7 7 C-5.7934375 7.0309375 -5.7934375 7.0309375 -4.5625 7.0625 C-2.06645115 7.29633621 -2.06645115 7.29633621 -1 6 C-2.65 6 -4.3 6 -6 6 C-6 5.34 -6 4.68 -6 4 C-4.02 4 -2.04 4 0 4 C0 2.68 0 1.36 0 0 Z " fill="#D8D8D8" transform="translate(130,216)"/>
<path d="M0 0 C0.99 0 1.98 0 3 0 C3.34667725 0.77375977 3.69335449 1.54751953 4.05053711 2.34472656 C4.80985962 4.03936267 5.56919816 5.73399161 6.32881165 7.42849731 C7.79405808 10.6972204 9.25805288 13.96649398 10.71972656 17.23681641 C13.39406986 23.21628819 16.07620863 29.19028945 18.83203125 35.1328125 C19.24525635 36.02967773 19.65848145 36.92654297 20.08422852 37.85058594 C20.83896107 39.4849178 21.60072749 41.11602738 22.37084961 42.74316406 C24.41585048 47.19056361 25.52366581 51.06963187 26 56 C26.30903983 57.33917261 26.62942911 58.67653254 27 60 C23.88900922 58.9688289 23.08326135 58.1591075 21.53613281 55.20263672 C21.09624023 54.04006348 20.65634766 52.87749023 20.203125 51.6796875 C19.9646283 51.06102814 19.72613159 50.44236877 19.48040771 49.80496216 C18.72368841 47.83306703 17.98670634 45.85444775 17.25 43.875 C16.73956619 42.5346662 16.22786171 41.19481558 15.71484375 39.85546875 C14.46178422 36.57578514 13.22631564 33.28979102 12 30 C13.60728237 35.59556917 15.28971152 41.03105764 17.625 46.375 C19.01561667 49.56920436 20.27233852 52.58807616 21 56 C18 55 18 55 16.640625 52.32421875 C16.18171875 51.12410156 15.7228125 49.92398438 15.25 48.6875 C14.99686035 48.03177002 14.7437207 47.37604004 14.48291016 46.70043945 C12.01016321 40.21492778 9.73710553 33.65483749 7.48339844 27.09057617 C5.70350442 21.91995394 3.80153071 16.8549706 1.53125 11.875 C0.87680282 9.56518641 1.3742813 8.28364489 2 6 C1.12949221 2.80376352 1.12949221 2.80376352 0 0 Z " fill="#8C8C8C" transform="translate(146,142)"/>
<path d="M0 0 C0.66 0 1.32 0 2 0 C2.391875 0.886875 2.78375 1.77375 3.1875 2.6875 C5.07111091 6.12996132 7.1687294 8.31774364 10 11 C11.39935013 13.79870027 11.25265405 15.90498792 11 19 C9.875 20.8125 9.875 20.8125 8 22 C4.8125 22.6875 4.8125 22.6875 2 23 C1.67 24.65 1.34 26.3 1 28 C0.79375 27.401875 0.5875 26.80375 0.375 26.1875 C-0.90671047 23.71667553 -0.90671047 23.71667553 -4 22.5625 C-7 21 -7 21 -8.5 18.75 C-9.20874371 14.85190958 -8.515373 12.66215142 -7 9 C-5.54310398 7.04562729 -4.00509107 5.25971833 -2.33984375 3.48046875 C-0.89875537 2.02133684 -0.89875537 2.02133684 0 0 Z " fill="#050505" transform="translate(105,43)"/>
<path d="M0 0 C3.67953134 2.09258759 6.67782095 4.90124495 8 9 C8 10.32 8 11.64 8 13 C6.453125 13.12375 6.453125 13.12375 4.875 13.25 C0.92560134 13.74978569 0.92560134 13.74978569 -2.125 16.125 C-5 18 -5 18 -7.6875 17.9375 C-10.21711498 16.91198042 -11.46545322 16.26143736 -13 14 C-13.1875 11.3125 -13.1875 11.3125 -13 9 C-14.32 9.33 -15.64 9.66 -17 10 C-16.67 9.34 -16.34 8.68 -16 8 C-15.01 8 -14.02 8 -13 8 C-13.0825 7.071875 -13.165 6.14375 -13.25 5.1875 C-13 2 -13 2 -11.5625 0.0625 C-7.57239638 -1.59193321 -4.11097134 -1.17558106 0 0 Z " fill="#040404" transform="translate(137,95)"/>
<path d="M0 0 C2.26953125 1.36328125 2.26953125 1.36328125 4 3 C4.80497884 8.05986698 3.18228302 11.54814264 1 16 C0 17 0 17 -3.1875 17.3125 C-7.65493587 16.94631673 -9.3625433 15.50075148 -13 13 C-16.73225344 12.20317197 -16.73225344 12.20317197 -20 12 C-18.98481053 6.67025528 -16.66888305 4.13292781 -12.359375 1.13671875 C-8.35024848 -0.79483061 -4.32142228 -0.94806713 0 0 Z " fill="#040404" transform="translate(80,64)"/>
<path d="M0 0 C0.99 0.33 1.98 0.66 3 1 C2.01 1.495 2.01 1.495 1 2 C1 2.66 1 3.32 1 4 C6.61 4 12.22 4 18 4 C18 4.66 18 5.32 18 6 C17.34 6 16.68 6 16 6 C16 8.97 16 11.94 16 15 C14.35 15.33 12.7 15.66 11 16 C11 15.34 11 14.68 11 14 C11.99 14 12.98 14 14 14 C13.505 12.02 13.505 12.02 13 10 C9.75150023 11.72226496 9.75150023 11.72226496 9 15 C8.34 15 7.68 15 7 15 C6.19032562 12.08517222 5.78154007 10.53886783 6.9375 7.6875 C7.4634375 6.8521875 7.4634375 6.8521875 8 6 C6.68 6 5.36 6 4 6 C4 8.64 4 11.28 4 14 C3.34 14 2.68 14 2 14 C2 13.01 2 12.02 2 11 C1.34 11 0.68 11 0 11 C-0.33 11.99 -0.66 12.98 -1 14 C-2.32 13.01 -3.64 12.02 -5 11 C-4.67 9.35 -4.34 7.7 -4 6 C-5.65 6.33 -7.3 6.66 -9 7 C-8.01 7.33 -7.02 7.66 -6 8 C-6.33 9.32 -6.66 10.64 -7 12 C-7 11.34 -7 10.68 -7 10 C-7.99 10 -8.98 10 -10 10 C-10 11.32 -10 12.64 -10 14 C-16.0546875 14.1953125 -16.0546875 14.1953125 -18 14 C-18.66 13.34 -19.32 12.68 -20 12 C-19.625 9.375 -19.625 9.375 -19 7 C-17.02 6.67 -15.04 6.34 -13 6 C-15.97 5.505 -15.97 5.505 -19 5 C-19 4.67 -19 4.34 -19 4 C-13.06 4 -7.12 4 -1 4 C-0.67 2.68 -0.34 1.36 0 0 Z " fill="#EDEDED" transform="translate(98,216)"/>
<path d="M0 0 C6.51248068 0.15655002 10.99931541 2.96901695 15.75 7.3125 C16.08 8.3025 16.41 9.2925 16.75 10.3125 C15.5125 10.56 14.275 10.8075 13 11.0625 C9.99702066 11.79352299 8.92980167 12.13269833 6.6875 14.375 C3.88600475 17.17649525 1.63387927 17.24314501 -2.25 17.3125 C-4.625 16.125 -4.625 16.125 -6.25 14.3125 C-6.60169068 12.98389075 -6.93770276 11.65091672 -7.25 10.3125 C-8.24 9.9825 -9.23 9.6525 -10.25 9.3125 C-9.59 8.9825 -8.93 8.6525 -8.25 8.3125 C-7.57060826 6.31678677 -6.90438441 4.31655227 -6.25 2.3125 C-3.86629091 -0.07120909 -3.2563401 0.01661398 0 0 Z " fill="#040404" transform="translate(133.25,64.6875)"/>
<path d="M0 0 C1.0209375 0.25716797 1.0209375 0.25716797 2.0625 0.51953125 C4 1.1875 4 1.1875 7 3.1875 C7.6875 6.3125 7.6875 6.3125 8 9.1875 C7.34 9.1875 6.68 9.1875 6 9.1875 C5.87625 9.97125 5.7525 10.755 5.625 11.5625 C5 14.1875 5 14.1875 3 16.1875 C-2.45926377 16.41273485 -6.4374781 15.10244455 -11 12.1875 C-13.70953551 11.93553871 -13.70953551 11.93553871 -16 12.1875 C-14.74784899 6.34412862 -11.78100896 3.45647494 -7 0.1875 C-3.85814159 -0.85978614 -3.05937877 -0.80540464 0 0 Z " fill="#050505" transform="translate(80,95.8125)"/>
<path d="M0 0 C-2.89274662 1.92849775 -5.45637698 3.00885159 -8.6875 4.25 C-23.01449637 10.16053409 -29.98060492 20.09954125 -36 34 C-38.94350205 42.99619998 -39.19919089 50.93251384 -35.265625 59.64453125 C-31.38116691 66.87393936 -26.97727504 72.34090832 -19 75 C-16.94106379 75.22325814 -14.87766347 75.40705759 -12.8125 75.5625 C-11.18248047 75.68818359 -11.18248047 75.68818359 -9.51953125 75.81640625 C-8.68808594 75.87699219 -7.85664062 75.93757813 -7 76 C-7 76.33 -7 76.66 -7 77 C-14.47858871 78.29783069 -20.07811836 78.54612769 -26.75 74.6328125 C-34.91606356 68.70674554 -39.70614374 60.23717975 -41.48046875 50.3125 C-42.22044151 36.87299467 -35.23303559 24.41346708 -27.75 13.8125 C-20.56013832 6.45923237 -10.6657647 -0.47193649 0 0 Z " fill="#080808" transform="translate(93,41)"/>
<path d="M0 0 C2.31 0.33 4.62 0.66 7 1 C7 1.66 7 2.32 7 3 C8.08667969 2.98259766 8.08667969 2.98259766 9.1953125 2.96484375 C14.24783323 2.91768689 19.03378767 2.92622436 24 4 C23.34 5.65 22.68 7.3 22 9 C21.01 9 20.02 9 19 9 C18.34 10.98 17.68 12.96 17 15 C16.34 14.67 15.68 14.34 15 14 C15 11.36 15 8.72 15 6 C14.34 6 13.68 6 13 6 C13 8.31 13 10.62 13 13 C12.01 12.67 11.02 12.34 10 12 C10 10.02 10 8.04 10 6 C9.34 5.67 8.68 5.34 8 5 C8.04125 6.11375 8.0825 7.2275 8.125 8.375 C8 12 8 12 6 14 C6 11.03 6 8.06 6 5 C5.34 5 4.68 5 4 5 C4 7.97 4 10.94 4 14 C1.36 13.67 -1.28 13.34 -4 13 C-4.33 11.35 -4.66 9.7 -5 8 C-4.34 8 -3.68 8 -3 8 C-3 7.01 -3 6.02 -3 5 C-3.99 5 -4.98 5 -6 5 C-6 4.34 -6 3.68 -6 3 C-3.03 3 -0.06 3 3 3 C3.33 2.34 3.66 1.68 4 1 C2.68 1.33 1.36 1.66 0 2 C0 1.34 0 0.68 0 0 Z " fill="#E9E9E9" transform="translate(47,216)"/>
<path d="M0 0 C1.32197188 3.96591564 0.3224484 5.55019096 -1.125 9.4375 C-1.35292236 10.05351074 -1.58084473 10.66952148 -1.81567383 11.30419922 C-4.564777 18.65463151 -7.40922349 26.01520185 -11 33 C-10.2265625 32.72285156 -9.453125 32.44570312 -8.65625 32.16015625 C-2.75508919 30.10789612 2.74378598 28.27960733 9 28 C10.30130859 27.92265625 10.30130859 27.92265625 11.62890625 27.84375 C23.59582057 27.46131865 35.15187429 29.97157467 46 35 C45.67 35.99 45.34 36.98 45 38 C44.35675781 37.73445313 43.71351562 37.46890625 43.05078125 37.1953125 C27.07040349 30.94905928 9.08119977 29.77070351 -7.49609375 34.34375 C-10 35 -10 35 -13 35 C-11.57223576 26.95807492 -8.63071136 19.90332541 -5.375 12.4375 C-4.859375 11.23802734 -4.34375 10.03855469 -3.8125 8.80273438 C-2.54862662 5.86539901 -1.27766444 2.93135643 0 0 Z " fill="#DCDCDC" transform="translate(53,165)"/>
<path d="M0 0 C0.75539062 0.00064453 1.51078125 0.00128906 2.2890625 0.00195312 C7.26716554 0.04044361 12.0717623 0.48746624 17 1.1875 C17 1.8475 17 2.5075 17 3.1875 C14.69 3.1875 12.38 3.1875 10 3.1875 C12.64 3.8475 15.28 4.5075 18 5.1875 C18 5.8475 18 6.5075 18 7.1875 C17.42258057 7.14149658 16.84516113 7.09549316 16.25024414 7.0480957 C0.39371309 5.85928774 -14.735011 5.19910616 -29 13.1875 C-29.99 12.8575 -30.98 12.5275 -32 12.1875 C-19.51480638 5.66813781 -19.51480638 5.66813781 -13 4.1875 C-14.32 3.5275 -15.64 2.8675 -17 2.1875 C-11.17589598 0.51307009 -6.04364096 -0.09797711 0 0 Z " fill="#D7D7D7" transform="translate(143,189.8125)"/>
<path d="M0 0 C6.74073241 2.64814488 10.03356207 9.78036848 13 16 C17.53070285 27.45260998 16.55705508 36.61441656 12 48 C7.17386367 57.33238466 0.83204803 62.6475157 -8.86328125 66.43359375 C-11 67 -11 67 -13 66 C-11.50802797 63.01605594 -9.32607941 62.83915412 -6.25 61.6875 C2.72716492 58.01598811 6.59433375 52.41202741 11 44 C14.6250221 35.10221849 13.91270589 25.53236182 10.34765625 16.75390625 C6.49320059 8.196958 6.49320059 8.196958 0 2 C0 1.34 0 0.68 0 0 Z " fill="#222222" transform="translate(143,54)"/>
<path d="M0 0 C0.66 0.33 1.32 0.66 2 1 C3 4 3 4 2.25 6.625 C1 9 1 9 -2 10 C-2.83333333 11.91666667 -2.83333333 11.91666667 -3 14 C-2.67 14.66 -2.34 15.32 -2 16 C-2.9375 18.625 -2.9375 18.625 -4 21 C-4.33 19.68 -4.66 18.36 -5 17 C-5.45439453 18.09054688 -5.45439453 18.09054688 -5.91796875 19.203125 C-6.80292316 21.32701558 -7.6883785 23.45069748 -8.57421875 25.57421875 C-9.47640347 27.74193382 -10.37526837 29.91103613 -11.26953125 32.08203125 C-13.26279269 36.9101534 -15.30226098 41.69862524 -17.5 46.4375 C-20.29726207 52.51155478 -22.66046623 58.73801388 -25 65 C-25.66 65 -26.32 65 -27 65 C-25.21889269 57.61582594 -22.25351528 50.90405172 -19.11523438 44.02441406 C-16.85752377 39.03812242 -14.84129228 34.02818973 -13 28.875 C-10.44491848 21.76826266 -7.21166993 15.12234475 -3.734375 8.42578125 C-2.32713857 5.64617236 -1.09192081 2.91364584 0 0 Z " fill="#E0E0E0" transform="translate(62,137)"/>
<path d="M0 0 C5.28 0 10.56 0 16 0 C16 0.66 16 1.32 16 2 C15.34 2 14.68 2 14 2 C14 4.97 14 7.94 14 11 C12.35 11.33 10.7 11.66 9 12 C9 11.34 9 10.68 9 10 C9.99 10 10.98 10 12 10 C11.67 8.68 11.34 7.36 11 6 C7.75150023 7.72226496 7.75150023 7.72226496 7 11 C6.34 11 5.68 11 5 11 C4.19032562 8.08517222 3.78154007 6.53886783 4.9375 3.6875 C5.288125 3.130625 5.63875 2.57375 6 2 C4.68 2 3.36 2 2 2 C2 4.64 2 7.28 2 10 C1.34 10 0.68 10 0 10 C0 9.01 0 8.02 0 7 C-0.66 7 -1.32 7 -2 7 C-2.33 7.99 -2.66 8.98 -3 10 C-4.32 9.01 -5.64 8.02 -7 7 C-6.67 6.34 -6.34 5.68 -6 5 C-2.9375 4.375 -2.9375 4.375 0 4 C0 2.68 0 1.36 0 0 Z " fill="#E2E2E2" transform="translate(100,220)"/>
<path d="M0 0 C3 1 3 1 4.24267578 3.02197266 C4.6395459 3.8938623 5.03641602 4.76575195 5.4453125 5.6640625 C6.10080078 7.10072266 6.10080078 7.10072266 6.76953125 8.56640625 C7.21683594 9.57574219 7.66414062 10.58507812 8.125 11.625 C8.58003906 12.61113281 9.03507813 13.59726563 9.50390625 14.61328125 C11.84142957 19.80854821 13.55449331 24.31412645 14 30 C14.30903983 31.33917261 14.62942911 32.67653254 15 34 C11.93326291 32.96872966 11.09028905 32.16862188 9.53613281 29.26611328 C9.09624023 28.12899902 8.65634766 26.99188477 8.203125 25.8203125 C7.9646283 25.21113983 7.72613159 24.60196716 7.48040771 23.97433472 C6.97983965 22.68742728 6.48602161 21.39787657 5.99853516 20.10595703 C5.25308366 18.13316073 4.48592993 16.16993027 3.71484375 14.20703125 C0 4.59430091 0 4.59430091 0 0 Z " fill="#B2B2B2" transform="translate(158,168)"/>
<path d="M0 0 C1.65 0.99 3.3 1.98 5 3 C4.67 3.99 4.34 4.98 4 6 C3.34 6 2.68 6 2 6 C2 6.66 2 7.32 2 8 C3.32 8.33 4.64 8.66 6 9 C5.67 10.32 5.34 11.64 5 13 C4.67 12.01 4.34 11.02 4 10 C3.34 10 2.68 10 2 10 C1.67 11.65 1.34 13.3 1 15 C0.01 14.67 -0.98 14.34 -2 14 C-3.66621616 13.96125079 -5.33394172 13.9549714 -7 14 C-8.125 9.25 -8.125 9.25 -7 7 C-5.7934375 7.0309375 -5.7934375 7.0309375 -4.5625 7.0625 C-2.06645115 7.29633621 -2.06645115 7.29633621 -1 6 C-2.65 6 -4.3 6 -6 6 C-6 5.34 -6 4.68 -6 4 C-4.02 4 -2.04 4 0 4 C0 2.68 0 1.36 0 0 Z " fill="#E8E8E8" transform="translate(130,216)"/>
<path d="M0 0 C1.16595703 0.00688843 1.16595703 0.00688843 2.35546875 0.01391602 C18.3364522 0.2619761 18.3364522 0.2619761 24.3125 3.25 C24.3125 3.91 24.3125 4.57 24.3125 5.25 C23.054375 5.270625 21.79625 5.29125 20.5 5.3125 C19.79230469 5.32410156 19.08460937 5.33570313 18.35546875 5.34765625 C16.3125 5.25 16.3125 5.25 13.3125 4.25 C10.95569787 4.16602843 8.59655919 4.14271813 6.23828125 4.15234375 C5.5544487 4.1537587 4.87061615 4.15517365 4.1660614 4.15663147 C1.98566278 4.16222124 -0.19463251 4.17477178 -2.375 4.1875 C-3.85481622 4.19251633 -5.33463406 4.197079 -6.81445312 4.20117188 C-10.43883557 4.21218729 -14.0631577 4.22944488 -17.6875 4.25 C-17.3575 3.59 -17.0275 2.93 -16.6875 2.25 C-11.03859106 0.46943381 -5.89580844 -0.07254207 0 0 Z " fill="#111111" transform="translate(64.6875,195.75)"/>
<path d="M0 0 C2.97 0.33 5.94 0.66 9 1 C9.25 6.625 9.25 6.625 7 10 C7 10.99 7 11.98 7 13 C4.69 12.67 2.38 12.34 0 12 C0.33 12.66 0.66 13.32 1 14 C3.52733235 14.65555119 3.52733235 14.65555119 6 15 C6 15.99 6 16.98 6 18 C-0.875 17.125 -0.875 17.125 -2 16 C-2.04080783 14.00041636 -2.04254356 11.99954746 -2 10 C-0.35 9.34 1.3 8.68 3 8 C2.67 6.35 2.34 4.7 2 3 C1.34 3 0.68 3 0 3 C0 2.01 0 1.02 0 0 Z " fill="#D0D0D0" transform="translate(182,117)"/>
<path d="M0 0 C1.32197188 3.96591564 0.3224484 5.55019096 -1.125 9.4375 C-1.35292236 10.05351074 -1.58084473 10.66952148 -1.81567383 11.30419922 C-4.564777 18.65463151 -7.40922349 26.01520185 -11 33 C-9.80375 32.484375 -8.6075 31.96875 -7.375 31.4375 C-3.56287739 29.98590883 -1.00121473 29.89966595 3 31 C3 31.33 3 31.66 3 32 C0.89679937 32.50404808 -1.20759791 33.00310508 -3.3125 33.5 C-4.48425781 33.7784375 -5.65601563 34.056875 -6.86328125 34.34375 C-10 35 -10 35 -13 35 C-11.57223576 26.95807492 -8.63071136 19.90332541 -5.375 12.4375 C-4.859375 11.23802734 -4.34375 10.03855469 -3.8125 8.80273438 C-2.54862662 5.86539901 -1.27766444 2.93135643 0 0 Z " fill="#D2D2D2" transform="translate(53,165)"/>
<path d="M0 0 C0.86189941 0.00346436 1.72379883 0.00692871 2.61181641 0.01049805 C12.94531266 0.18281819 23.24695601 1.29564342 32.4375 6.3125 C32.4375 6.9725 32.4375 7.6325 32.4375 8.3125 C31.90125 8.13074219 31.365 7.94898438 30.8125 7.76171875 C13.81983094 2.31176732 -1.06448238 1.90786445 -18.5625 4.3125 C-18.5625 3.6525 -18.5625 2.9925 -18.5625 2.3125 C-12.31085612 0.67923817 -6.45583223 -0.04273274 0 0 Z " fill="#C9C9C9" transform="translate(67.5625,189.6875)"/>
<path d="M0 0 C2.75805795 2.75805795 3.82076136 6.06367638 5.25 9.625 C5.55502441 10.37612061 5.86004883 11.12724121 6.17431641 11.90112305 C8.3042853 17.18082067 10.36554642 22.4858335 12.375 27.8125 C12.75060059 28.80660889 12.75060059 28.80660889 13.13378906 29.82080078 C14.26153389 32.85034062 15.31492003 35.83747969 16 39 C13 38 13 38 11.640625 35.32421875 C11.18171875 34.12410156 10.7228125 32.92398438 10.25 31.6875 C9.99976074 31.0368457 9.74952148 30.38619141 9.49169922 29.71582031 C8.64301406 27.48353379 7.81856915 25.2435028 7 23 C6.68385742 22.1352002 6.36771484 21.27040039 6.04199219 20.37939453 C5.05940261 17.67314263 4.08896574 14.96293832 3.125 12.25 C2.8146582 11.38076904 2.50431641 10.51153809 2.18457031 9.6159668 C1.89936523 8.799104 1.61416016 7.98224121 1.3203125 7.140625 C1.06523926 6.41391602 0.81016602 5.68720703 0.54736328 4.93847656 C0 3 0 3 0 0 Z " fill="#DADADA" transform="translate(151,159)"/>
<path d="M0 0 C2.97 0 5.94 0 9 0 C9 0.33 9 0.66 9 1 C7.35 1 5.7 1 4 1 C4 1.66 4 2.32 4 3 C4.99 2.67 5.98 2.34 7 2 C7.99 2.33 8.98 2.66 10 3 C10 5.64 10 8.28 10 11 C7.36 10.67 4.72 10.34 2 10 C1.67 8.35 1.34 6.7 1 5 C1.66 5 2.32 5 3 5 C3 4.01 3 3.02 3 2 C2.01 2 1.02 2 0 2 C0 1.34 0 0.68 0 0 Z " fill="#B7B7B7" transform="translate(41,219)"/>
<path d="M0 0 C2.375 0.6875 2.375 0.6875 3.375 1.6875 C3.41580783 3.68708364 3.41754356 5.68795254 3.375 7.6875 C0.46899739 8.94414978 -1.42104584 9.6875 -4.625 9.6875 C-4.955 7.0475 -5.285 4.4075 -5.625 1.6875 C-2.625 -0.3125 -2.625 -0.3125 0 0 Z " fill="#E4E4E4" transform="translate(27.625,122.3125)"/>
<path d="M0 0 C0.33 3.63 0.66 7.26 1 11 C-1.64 11.33 -4.28 11.66 -7 12 C-7 11.01 -7 10.02 -7 9 C-5.02 8.67 -3.04 8.34 -1 8 C-3.31 7.67 -5.62 7.34 -8 7 C-8 5.35 -8 3.7 -8 2 C-2.25 0 -2.25 0 0 0 Z " fill="#F0F0F0" transform="translate(28,109)"/>
<path d="M0 0 C3.14737182 0.69941596 6.02588876 1.76078698 9 3 C8.45276317 6.37462715 7.9451 8.08235 6 11 C3.07120629 10.37240135 0.63904371 9.41377341 -2 8 C-1.67 7.01 -1.34 6.02 -1 5 C-0.01 5 0.98 5 2 5 C2 4.34 2 3.68 2 3 C1.34 3 0.68 3 0 3 C0 2.01 0 1.02 0 0 Z " fill="#E6E6E6" transform="translate(177,134)"/>
<path d="M0 0 C3.61366177 1.20455392 3.87169886 2.06321942 5.75 5.25 C9.16968357 10.60551442 12.85202338 13.95067446 19 16 C21.05893621 16.22325814 23.12233653 16.40705759 25.1875 16.5625 C26.27417969 16.64628906 27.36085938 16.73007813 28.48046875 16.81640625 C29.31191406 16.87699219 30.14335938 16.93757813 31 17 C31 17.33 31 17.66 31 18 C23.52437363 19.2973166 17.94483865 19.53052241 11.26171875 15.65625 C5.67586479 11.56574555 1.54822955 6.88102022 0 0 Z " fill="#161616" transform="translate(55,100)"/>
<path d="M0 0 C1.75 1.4375 1.75 1.4375 2.75 3.3125 C2.75 5.4375 2.75 5.4375 1.0625 7.6875 C-1.25 9.4375 -1.25 9.4375 -5.25 9.4375 C-5.91 7.1275 -6.57 4.8175 -7.25 2.4375 C-2.87857143 -0.71964286 -2.87857143 -0.71964286 0 0 Z " fill="#A3A3A3" transform="translate(73.25,27.5625)"/>
<path d="M0 0 C4.455 0.99 4.455 0.99 9 2 C8 6 8 6 5 8 C5.66 8.33 6.32 8.66 7 9 C7 9.66 7 10.32 7 11 C4.36 10.67 1.72 10.34 -1 10 C-1 8.68 -1 7.36 -1 6 C0.32 5.67 1.64 5.34 3 5 C3 4.34 3 3.68 3 3 C2.01 2.67 1.02 2.34 0 2 C0 1.34 0 0.68 0 0 Z " fill="#E2E2E2" transform="translate(25,74)"/>
<path d="M0 0 C2.5 0.25 2.5 0.25 4.5 2.25 C4.17028521 5.54714793 3.8773161 6.8726839 1.5 9.25 C-3.05555556 8.69444444 -3.05555556 8.69444444 -4.5 7.25 C-4.6875 4.8125 -4.6875 4.8125 -4.5 2.25 C-2.5 0.25 -2.5 0.25 0 0 Z " fill="#E9E9E9" transform="translate(151.5,34.75)"/>
<path d="M0 0 C0 1.98 0 3.96 0 6 C-3.153368 6.70074844 -5.72724974 7 -9 7 C-8.67 6.01 -8.34 5.02 -8 4 C-8.66 3.67 -9.32 3.34 -10 3 C-10 2.01 -10 1.02 -10 0 C-6.30458414 -0.95024979 -3.69541586 -0.95024979 0 0 Z " fill="#ECECEC" transform="translate(191,90)"/>
<path d="M0 0 C-0.37125 0.763125 -0.7425 1.52625 -1.125 2.3125 C-1.41375 3.199375 -1.7025 4.08625 -2 5 C-1.01 6.485 -1.01 6.485 0 8 C-2.95664519 9.4783226 -5.74229737 9.06032783 -9 9 C-8.67 7.68 -8.34 6.36 -8 5 C-7.34 5 -6.68 5 -6 5 C-6 4.34 -6 3.68 -6 3 C-6.99 3 -7.98 3 -9 3 C-9 2.34 -9 1.68 -9 1 C-5.8035914 -0.06546953 -3.34252724 -0.07427838 0 0 Z " fill="#E7E7E7" transform="translate(29,99)"/>
<path d="M0 0 C3.0625 0.1875 3.0625 0.1875 5.0625 2.1875 C5.1875 5.3125 5.1875 5.3125 5.0625 8.1875 C4.0725 7.8575 3.0825 7.5275 2.0625 7.1875 C2.0625 5.8675 2.0625 4.5475 2.0625 3.1875 C0.7425 3.1875 -0.5775 3.1875 -1.9375 3.1875 C-0.9475 3.5175 0.0425 3.8475 1.0625 4.1875 C1.0625 5.5075 1.0625 6.8275 1.0625 8.1875 C-0.9175 8.1875 -2.8975 8.1875 -4.9375 8.1875 C-3.92735959 0.25068253 -3.92735959 0.25068253 0 0 Z " fill="#E1E1E1" transform="translate(186.9375,107.8125)"/>
<path d="M0 0 C-0.33 1.98 -0.66 3.96 -1 6 C-0.01 6 0.98 6 2 6 C1.67 6.99 1.34 7.98 1 9 C-2.5625 10.1875 -2.5625 10.1875 -6 11 C-5.67 9.02 -5.34 7.04 -5 5 C-5.99 5.33 -6.98 5.66 -8 6 C-7.8125 4.125 -7.8125 4.125 -7 2 C-4.55683729 0.74709605 -2.75474605 0 0 0 Z " fill="#E2E2E2" transform="translate(33,131)"/>
<path d="M0 0 C3.3 0.33 6.6 0.66 10 1 C9.34 2.65 8.68 4.3 8 6 C7.01 6 6.02 6 5 6 C4.34 7.98 3.68 9.96 3 12 C2.34 11.67 1.68 11.34 1 11 C1 8.36 1 5.72 1 3 C0.34 2.67 -0.32 2.34 -1 2 C-0.67 1.34 -0.34 0.68 0 0 Z " fill="#C4C4C4" transform="translate(61,219)"/>
<path d="M0 0 C1.25751405 2.5150281 0.84039825 3.3344065 0.125 6 C-0.05804688 6.70125 -0.24109375 7.4025 -0.4296875 8.125 C-1 10 -1 10 -2 12 C-2.66 12 -3.32 12 -4 12 C-4.17015625 12.53367188 -4.3403125 13.06734375 -4.515625 13.6171875 C-6.43463324 19.5171171 -8.64054239 25.26304469 -11 31 C-12.33817623 26.98547132 -11.26420242 25.25040245 -9.8125 21.3125 C-9.58127441 20.68472656 -9.35004883 20.05695313 -9.11181641 19.41015625 C-7.36194149 14.74703465 -5.34933754 10.38543007 -3 6 C-2.13375 4.2675 -2.13375 4.2675 -1.25 2.5 C-0.8375 1.675 -0.425 0.85 0 0 Z " fill="#353535" transform="translate(57,153)"/>
<path d="M0 0 C1.65 0 3.3 0 5 0 C4.01 0.495 4.01 0.495 3 1 C3 2.32 3 3.64 3 5 C4.32 4.34 5.64 3.68 7 3 C7 5.31 7 7.62 7 10 C6.34 10 5.68 10 5 10 C5 9.34 5 8.68 5 8 C4.34 8 3.68 8 3 8 C3 8.66 3 9.32 3 10 C1.68 9.67 0.36 9.34 -1 9 C-0.67 6.03 -0.34 3.06 0 0 Z " fill="#ECECEC" transform="translate(164,221)"/>
<path d="M0 0 C3 1 3 1 4.640625 4.08984375 C5.18842218 5.36759397 5.72445938 6.65043572 6.25 7.9375 C6.53101563 8.58396484 6.81203125 9.23042969 7.1015625 9.89648438 C7.80373244 11.57022115 8.40920546 13.28378346 9 15 C8.67 15.66 8.34 16.32 8 17 C7.01 17 6.02 17 5 17 C4.15838146 14.91999989 3.32699237 12.83585854 2.5 10.75 C2.0359375 9.58984375 1.571875 8.4296875 1.09375 7.234375 C0 4 0 4 0 0 Z " fill="#A8A8A8" transform="translate(158,168)"/>
<path d="M0 0 C0.99 0 1.98 0 3 0 C3 1.32 3 2.64 3 4 C3.99 4 4.98 4 6 4 C6 2.68 6 1.36 6 0 C6.99 0.33 7.98 0.66 9 1 C8.67 3.97 8.34 6.94 8 10 C7.01 9.67 6.02 9.34 5 9 C5 8.34 5 7.68 5 7 C4.01 6.67 3.02 6.34 2 6 C2 6.99 2 7.98 2 9 C1.34 9 0.68 9 0 9 C0 6.03 0 3.06 0 0 Z " fill="#DDDDDD" transform="translate(113,21)"/>
<path d="M0 0 C6.75 0.875 6.75 0.875 9 2 C9 3.32 9 4.64 9 6 C6.03 6.66 3.06 7.32 0 8 C0 5.36 0 2.72 0 0 Z " fill="#DFDFDF" transform="translate(183,99)"/>
<path d="M0 0 C0.99 0 1.98 0 3 0 C3.66 0.66 4.32 1.32 5 2 C5.99 1.67 6.98 1.34 8 1 C7.51421457 4.12290635 7.0013988 6.99580359 6 10 C5.34 10 4.68 10 4 10 C3.34 9.34 2.68 8.68 2 8 C1.01 7.67 0.02 7.34 -1 7 C-0.67 4.69 -0.34 2.38 0 0 Z " fill="#E6E6E6" transform="translate(124,23)"/>
<path d="M0 0 C0.66 0.99 1.32 1.98 2 3 C3.32 2.34 4.64 1.68 6 1 C6.66 1.66 7.32 2.32 8 3 C7.64644564 5.26274788 7.02455574 6.95088852 6 9 C5.01 9 4.02 9 3 9 C3 8.01 3 7.02 3 6 C1.35 6.33 -0.3 6.66 -2 7 C-2.125 4.625 -2.125 4.625 -2 2 C-1.34 1.34 -0.68 0.68 0 0 Z " fill="#DBDBDB" transform="translate(29,66)"/>
<path d="M0 0 C-2.89274662 1.92849775 -5.45637698 3.00885159 -8.6875 4.25 C-14.18692918 6.49371384 -18.441796 9.25458418 -23 13 C-23.99 13.66 -24.98 14.32 -26 15 C-26 12 -26 12 -24.6015625 10.5703125 C-17.34306971 5.26271896 -9.25197992 -0.25005351 0 0 Z " fill="#363636" transform="translate(93,41)"/>
<path d="M0 0 C0.33 1.32 0.66 2.64 1 4 C-2.96 5.98 -2.96 5.98 -7 8 C-7.33 7.34 -7.66 6.68 -8 6 C-7.67 5.01 -7.34 4.02 -7 3 C-7.66 3 -8.32 3 -9 3 C-9 2.34 -9 1.68 -9 1 C-5.92677456 0.08941469 -3.19902639 -0.08886184 0 0 Z " fill="#E9E9E9" transform="translate(188,81)"/>
<path d="M0 0 C0 0.66 0 1.32 0 2 C-0.66 2 -1.32 2 -2 2 C-2 2.66 -2 3.32 -2 4 C-1.195625 4.28875 -0.39125 4.5775 0.4375 4.875 C3 6 3 6 4 8 C2.02 8 0.04 8 -2 8 C-2.33 8.99 -2.66 9.98 -3 11 C-3.66 11 -4.32 11 -5 11 C-5 9.35 -5 7.7 -5 6 C-5.99 5.67 -6.98 5.34 -8 5 C-8 4.34 -8 3.68 -8 3 C-5.09451118 0.95830515 -3.59857954 0 0 0 Z " fill="#E9E9E9" transform="translate(179,61)"/>
<path d="M0 0 C1.98 0 3.96 0 6 0 C5.01 0.66 4.02 1.32 3 2 C2.42251197 3.96361864 2.42251197 3.96361864 2.3125 6.125 C2.1578125 8.043125 2.1578125 8.043125 2 10 C1.34 10 0.68 10 0 10 C0 9.01 0 8.02 0 7 C-0.66 7 -1.32 7 -2 7 C-2.33 7.99 -2.66 8.98 -3 10 C-4.32 9.01 -5.64 8.02 -7 7 C-6.67 6.34 -6.34 5.68 -6 5 C-2.9375 4.375 -2.9375 4.375 0 4 C0 2.68 0 1.36 0 0 Z " fill="#F0F0F0" transform="translate(100,220)"/>
<path d="M0 0 C0.66 1.65 1.32 3.3 2 5 C1.34 5 0.68 5 0 5 C0 5.66 0 6.32 0 7 C1.32 6.67 2.64 6.34 4 6 C3.67 6.99 3.34 7.98 3 9 C0.9375 9.6875 0.9375 9.6875 -1 10 C-5 5.375 -5 5.375 -5 2 C-2 0 -2 0 0 0 Z " fill="#D1D1D1" transform="translate(59,34)"/>
<path d="M0 0 C1.2065625 0.0309375 1.2065625 0.0309375 2.4375 0.0625 C2.7675 1.7125 3.0975 3.3625 3.4375 5.0625 C2.4475 5.5575 2.4475 5.5575 1.4375 6.0625 C2.0975 6.3925 2.7575 6.7225 3.4375 7.0625 C3.1075 8.0525 2.7775 9.0425 2.4375 10.0625 C0.7875 9.7325 -0.8625 9.4025 -2.5625 9.0625 C-3.44140625 2.91015625 -3.44140625 2.91015625 -3.5625 1.0625 C-2.5625 0.0625 -2.5625 0.0625 0 0 Z " fill="#D3D3D3" transform="translate(99.5625,19.9375)"/>
<path d="M0 0 C0 0.33 0 0.66 0 1 C-1.134375 1.17015625 -2.26875 1.3403125 -3.4375 1.515625 C-11.35674608 2.76908137 -17.93831901 4.04545865 -25 8 C-25.99 7.67 -26.98 7.34 -28 7 C-18.2929571 1.9312978 -11.04018081 -1.85254735 0 0 Z " fill="#CCCCCC" transform="translate(139,195)"/>
<path d="M0 0 C0.66 0.33 1.32 0.66 2 1 C3 4 3 4 2.25 6.625 C1 9 1 9 -2 10 C-2.83333333 11.91666667 -2.83333333 11.91666667 -3 14 C-2.67 14.66 -2.34 15.32 -2 16 C-2.9375 18.625 -2.9375 18.625 -4 21 C-6.07154931 14.78535207 -6.05702221 12.23765712 -3.0625 6.1875 C-2.49660156 5.02605469 -1.93070313 3.86460937 -1.34765625 2.66796875 C-0.90292969 1.78753906 -0.45820312 0.90710938 0 0 Z " fill="#BABABA" transform="translate(62,137)"/>
<path d="M0 0 C6.74509058 2.64985701 10.00565252 9.78910964 13 16 C13.83125079 18.33176504 14.43470917 20.58466646 15 23 C14.34 23 13.68 23 13 23 C12.48050781 21.90300781 11.96101562 20.80601563 11.42578125 19.67578125 C10.72189866 18.22109057 10.01744098 16.76667807 9.3125 15.3125 C8.97283203 14.59126953 8.63316406 13.87003906 8.28320312 13.12695312 C6.04357976 8.54305109 3.69797944 5.49073716 0 2 C0 1.34 0 0.68 0 0 Z " fill="#1A1A1A" transform="translate(143,54)"/>
<path d="M0 0 C0.78375 0.04125 1.5675 0.0825 2.375 0.125 C3.035 1.445 3.695 2.765 4.375 4.125 C1.405 3.63 1.405 3.63 -1.625 3.125 C-1.955 4.115 -2.285 5.105 -2.625 6.125 C-1.965 6.125 -1.305 6.125 -0.625 6.125 C-0.625 5.465 -0.625 4.805 -0.625 4.125 C0.365 4.455 1.355 4.785 2.375 5.125 C1.715 6.445 1.055 7.765 0.375 9.125 C-3.5 8.25 -3.5 8.25 -4.625 7.125 C-4.8125 4.6875 -4.8125 4.6875 -4.625 2.125 C-2.625 0.125 -2.625 0.125 0 0 Z " fill="#E6E6E6" transform="translate(159.625,40.875)"/>
<path d="M0 0 C-0.66 1.98 -1.32 3.96 -2 6 C-0.68 5.67 0.64 5.34 2 5 C1 8 1 8 -0.875 9.1875 C-3 10 -3 10 -6 10 C-6 9.34 -6 8.68 -6 8 C-5.34 7.67 -4.68 7.34 -4 7 C-4 6.34 -4 5.68 -4 5 C-5.32 5.33 -6.64 5.66 -8 6 C-6.72879117 2.18637351 -4.19078006 0 0 0 Z " fill="#DDDDDD" transform="translate(184,70)"/>
<path d="M0 0 C0.99 0.33 1.98 0.66 3 1 C2.01 1.495 2.01 1.495 1 2 C1.33 3.98 1.66 5.96 2 8 C0.02 8.66 -1.96 9.32 -4 10 C-4 8.68 -4 7.36 -4 6 C-5.98 6 -7.96 6 -10 6 C-10 5.67 -10 5.34 -10 5 C-5.545 4.505 -5.545 4.505 -1 4 C-0.67 2.68 -0.34 1.36 0 0 Z " fill="#AEAEAE" transform="translate(98,216)"/>
<path d="M0 0 C0 3 0 3 -2.375 5.4375 C-6.38828518 8.59628187 -11.09168555 10.64050283 -16 12 C-16.66 11.67 -17.32 11.34 -18 11 C-16.20668531 7.41337062 -11.67929995 6.7888953 -8.078125 5.4140625 C-4.93001216 3.96784823 -2.60390453 2.26636135 0 0 Z " fill="#161616" transform="translate(148,109)"/>
<path d="M0 0 C2.0625 0.4375 2.0625 0.4375 4 1 C4.625 3.3125 4.625 3.3125 5 6 C4.01 7.485 4.01 7.485 3 9 C0.03 8.505 0.03 8.505 -3 8 C-3.33 6.68 -3.66 5.36 -4 4 C-3.34 3.67 -2.68 3.34 -2 3 C-2 3.99 -2 4.98 -2 6 C-0.68 5.34 0.64 4.68 2 4 C1.01 3.01 0.02 2.02 -1 1 C-0.67 0.67 -0.34 0.34 0 0 Z " fill="#D9D9D9" transform="translate(136,27)"/>
<path d="M0 0 C3.16115776 1.36983503 3.9927092 1.9890638 6 5 C5.625 7.1875 5.625 7.1875 5 9 C0.78825048 9 -0.0936485 8.80255323 -3 6 C-3 5.01 -3 4.02 -3 3 C-1 3 -1 3 0.5 4.4375 C0.995 4.953125 1.49 5.46875 2 6 C2.66 6.33 3.32 6.66 4 7 C4 6.34 4 5.68 4 5 C2.68 4.34 1.36 3.68 0 3 C0 2.01 0 1.02 0 0 Z " fill="#DEDEDE" transform="translate(45,44)"/>
<path d="M0 0 C1.29599488 3.88798463 0.38109952 5.05659075 -1.25 8.75 C-1.71277344 9.8121875 -2.17554688 10.874375 -2.65234375 11.96875 C-3.09707031 12.9690625 -3.54179688 13.969375 -4 15 C-4.60639721 16.41571333 -5.21108197 17.83216427 -5.8125 19.25 C-6.204375 20.1575 -6.59625 21.065 -7 22 C-7.66 21.67 -8.32 21.34 -9 21 C-6.76686274 13.55620912 -3.59727921 6.88023305 0 0 Z " fill="#D2D2D2" transform="translate(56,151)"/>
<path d="M0 0 C0 2.31 0 4.62 0 7 C-2.475 6.01 -2.475 6.01 -5 5 C-5.33 5.66 -5.66 6.32 -6 7 C-6.66 7 -7.32 7 -8 7 C-9.125 3.25 -9.125 3.25 -8 1 C-2.4 0 -2.4 0 0 0 Z " fill="#E5E5E5" transform="translate(161,224)"/>
<path d="M0 0 C1.1446875 0.3403125 1.1446875 0.3403125 2.3125 0.6875 C1.9825 1.6775 1.6525 2.6675 1.3125 3.6875 C-0.0075 3.6875 -1.3275 3.6875 -2.6875 3.6875 C-2.6875 4.3475 -2.6875 5.0075 -2.6875 5.6875 C-1.3675 5.6875 -0.0475 5.6875 1.3125 5.6875 C0.9825 6.6775 0.6525 7.6675 0.3125 8.6875 C-1.3375 8.3575 -2.9875 8.0275 -4.6875 7.6875 C-5.375 5.375 -5.375 5.375 -5.6875 2.6875 C-4.0011022 -0.12316299 -3.27764429 -0.38112143 0 0 Z " fill="#DDDDDD" transform="translate(109.6875,20.3125)"/>
<path d="M0 0 C4.29 0.33 8.58 0.66 13 1 C13 1.33 13 1.66 13 2 C10.36 2.33 7.72 2.66 5 3 C4.67 5.64 4.34 8.28 4 11 C3.34 11 2.68 11 2 11 C2 8.03 2 5.06 2 2 C1.34 2 0.68 2 0 2 C0 1.34 0 0.68 0 0 Z " fill="#F0F0F0" transform="translate(147,220)"/>
<path d="M0 0 C5.852795 0.51482919 11.3297637 1.45357192 17 3 C16.01 4.485 16.01 4.485 15 6 C10.05 4.68 5.1 3.36 0 2 C0 1.34 0 0.68 0 0 Z " fill="#0B0B0B" transform="translate(77,192)"/>
<path d="M0 0 C3 1 3 1 4.859375 4.4921875 C5.50087352 5.94820281 6.13063793 7.40943132 6.75 8.875 C7.07871094 9.60847656 7.40742188 10.34195313 7.74609375 11.09765625 C10.1281436 16.6155692 10.1281436 16.6155692 9 20 C8.32880451 18.5437455 7.66318193 17.08492133 7 15.625 C6.62875 14.81289062 6.2575 14.00078125 5.875 13.1640625 C5 11 5 11 5 9 C4.34 9 3.68 9 3 9 C2.01 6.03 1.02 3.06 0 0 Z " fill="#4F4F4F" transform="translate(147,150)"/>
<path d="M0 0 C0.66 0.33 1.32 0.66 2 1 C2 1.99 2 2.98 2 4 C4.475 4.99 4.475 4.99 7 6 C3.55549263 8.29633824 1.06187717 8.54016485 -3 9 C-2.01 6.03 -1.02 3.06 0 0 Z " fill="#D8D8D8" transform="translate(165,45)"/>
<path d="M0 0 C2.31 0 4.62 0 7 0 C6.34 1.65 5.68 3.3 5 5 C4.01 5 3.02 5 2 5 C1.67 5.66 1.34 6.32 1 7 C0.34 6.34 -0.32 5.68 -1 5 C-0.625 2.375 -0.625 2.375 0 0 Z " fill="#AEAEAE" transform="translate(79,223)"/>
<path d="M0 0 C0.66 0 1.32 0 2 0 C2.268125 0.598125 2.53625 1.19625 2.8125 1.8125 C3.98493467 3.97224808 5.19369282 5.35790256 7 7 C3.06329512 8.31223496 0.87511856 7.24296256 -3 6 C-2.01 4.02 -1.02 2.04 0 0 Z " fill="#DDDDDD" transform="translate(33,59)"/>
<path d="M0 0 C2.475 0.495 2.475 0.495 5 1 C5.33 1.99 5.66 2.98 6 4 C6.66 4.33 7.32 4.66 8 5 C8 8.3 8 11.6 8 15 C7.34 15 6.68 15 6 15 C6 12.03 6 9.06 6 6 C5.01 5.67 4.02 5.34 3 5 C2.67 4.01 2.34 3.02 2 2 C1.34 1.34 0.68 0.68 0 0 Z " fill="#F6F6F6" transform="translate(131,216)"/>
<path d="M0 0 C0 0.66 0 1.32 0 2 C-0.66 2 -1.32 2 -2 2 C-1.67 4.31 -1.34 6.62 -1 9 C-1.99 9 -2.98 9 -4 9 C-4.33 7.02 -4.66 5.04 -5 3 C-5.99 3 -6.98 3 -8 3 C-8 2.34 -8 1.68 -8 1 C-5.23735711 0.40267181 -2.83967231 0 0 0 Z " fill="#E4E4E4" transform="translate(95,21)"/>
<path d="M0 0 C0 0.66 0 1.32 0 2 C-1.77065111 2.64633275 -3.54152753 3.2920483 -5.3125 3.9375 C-6.79169922 4.47697266 -6.79169922 4.47697266 -8.30078125 5.02734375 C-10.1920563 5.70885965 -12.09284329 6.3642811 -14 7 C-14 6.01 -14 5.02 -14 4 C-4.58997722 -0.59225513 -4.58997722 -0.59225513 0 0 Z " fill="#E0E0E0" transform="translate(125,193)"/>
<path d="M0 0 C-0.33 0.66 -0.66 1.32 -1 2 C2.3 2 5.6 2 9 2 C9 2.33 9 2.66 9 3 C7.89140625 2.98839844 6.7828125 2.97679687 5.640625 2.96484375 C4.17708502 2.95546208 2.71354322 2.94636229 1.25 2.9375 C0.52039063 2.92912109 -0.20921875 2.92074219 -0.9609375 2.91210938 C-5.08943908 2.85942219 -5.08943908 2.85942219 -9.11816406 3.63110352 C-9.73916992 3.75283936 -10.36017578 3.8745752 -11 4 C-11.66 3.34 -12.32 2.68 -13 2 C-11.39935157 1.46845258 -9.79431126 0.95011647 -8.1875 0.4375 C-7.29417969 0.14746094 -6.40085937 -0.14257812 -5.48046875 -0.44140625 C-3 -1 -3 -1 0 0 Z " fill="#3A3A3A" transform="translate(127,191)"/>
<path d="M0 0 C0.66 0.33 1.32 0.66 2 1 C4.15634036 1 5.92446352 0.5534764 8 0 C8 1.65 8 3.3 8 5 C6.3125 5.6875 6.3125 5.6875 4 6 C1.25 4.5625 1.25 4.5625 -1 3 C-0.67 2.01 -0.34 1.02 0 0 Z " fill="#BDBDBD" transform="translate(176,139)"/>
<path d="M0 0 C0 3.49054666 -0.06327077 6.60435653 -1 10 C-1.99 9.67 -2.98 9.34 -4 9 C-4.33 6.69 -4.66 4.38 -5 2 C-2 0 -2 0 0 0 Z " fill="#E6E6E6" transform="translate(81,24)"/>
<path d="M0 0 C1.32 0.33 2.64 0.66 4 1 C3.67 2.65 3.34 4.3 3 6 C1.35 6.33 -0.3 6.66 -2 7 C-2 3.89448334 -1.4606285 2.64738916 0 0 Z " fill="#353535" transform="translate(98,183)"/>
<path d="M0 0 C0 4.92319379 -3.42948067 7.41651432 -6.75 10.8125 C-7.4925 11.534375 -8.235 12.25625 -9 13 C-9 9.23660802 -7.93898713 8.27456755 -5.625 5.375 C-4.99851562 4.57835938 -4.37203125 3.78171875 -3.7265625 2.9609375 C-2 1 -2 1 0 0 Z " fill="#252525" transform="translate(121,65)"/>
<path d="M0 0 C-0.64505596 3.48330216 -1.98217268 6.09432866 -4 9 C-4.66 9 -5.32 9 -6 9 C-6.75 6.75 -6.75 6.75 -7 4 C-4.69139139 0.94933862 -3.89789797 0 0 0 Z " fill="#B4B4B4" transform="translate(111,222)"/>
<path d="M0 0 C2.87255066 2.42195448 3.70838919 4.59742703 4.6875 8.1875 C4.93886719 9.08855469 5.19023437 9.98960937 5.44921875 10.91796875 C5.63097656 11.60503906 5.81273437 12.29210937 6 13 C3 12 3 12 2.05078125 10.29296875 C1.80714844 9.59816406 1.56351563 8.90335938 1.3125 8.1875 C1.06113281 7.50042969 0.80976563 6.81335938 0.55078125 6.10546875 C0 4 0 4 0 0 Z " fill="#E0E0E0" transform="translate(161,185)"/>
<path d="M0 0 C2.97 0.33 5.94 0.66 9 1 C8.01 1.495 8.01 1.495 7 2 C7 3.32 7 4.64 7 6 C5.35 5.67 3.7 5.34 2 5 C2 4.34 2 3.68 2 3 C1.34 3 0.68 3 0 3 C0 2.01 0 1.02 0 0 Z " fill="#BBBBBB" transform="translate(182,117)"/>
<path d="M0 0 C0 3.93974955 -1.47789475 5.82936093 -3.5 9.1875 C-4.1496875 10.27417969 -4.799375 11.36085938 -5.46875 12.48046875 C-6.22671875 13.72763672 -6.22671875 13.72763672 -7 15 C-7.66 14.34 -8.32 13.68 -9 13 C-8.06811119 11.3925672 -7.12925565 9.78917201 -6.1875 8.1875 C-5.66542969 7.29417969 -5.14335938 6.40085937 -4.60546875 5.48046875 C-3.21467801 3.33168013 -1.8877934 1.70638383 0 0 Z " fill="#1C1C1C" transform="translate(66,55)"/>
<path d="M0 0 C0.99 0.33 1.98 0.66 3 1 C0.69 5.62 -1.62 10.24 -4 15 C-5 13 -5 13 -4.00390625 9.9609375 C-3.52824219 8.77757812 -3.05257812 7.59421875 -2.5625 6.375 C-2.08941406 5.18648437 -1.61632813 3.99796875 -1.12890625 2.7734375 C-0.75636719 1.85820312 -0.38382813 0.94296875 0 0 Z " fill="#242424" transform="translate(57,143)"/>
<path d="M0 0 C0.144375 0.7425 0.28875 1.485 0.4375 2.25 C0.90187492 4.52027739 1.41863569 6.75759479 2 9 C0 9 0 9 -2 7.125 C-2.66 6.42375 -3.32 5.7225 -4 5 C-4.66 4.34 -5.32 3.68 -6 3 C-2.25 0 -2.25 0 0 0 Z " fill="#D7D7D7" transform="translate(53,39)"/>
<path d="M0 0 C1.65 0.99 3.3 1.98 5 3 C4.67 3.99 4.34 4.98 4 6 C0.7 6 -2.6 6 -6 6 C-6 5.34 -6 4.68 -6 4 C-4.02 4 -2.04 4 0 4 C0 2.68 0 1.36 0 0 Z " fill="#B6B6B6" transform="translate(130,216)"/>
<path d="M0 0 C0.66 0 1.32 0 2 0 C2.33 0.99 2.66 1.98 3 3 C4.65 3.33 6.3 3.66 8 4 C8 4.99 8 5.98 8 7 C1.125 6.125 1.125 6.125 0 5 C-0.04063832 3.33382885 -0.042721 1.66611905 0 0 Z " fill="#EBEBEB" transform="translate(180,128)"/>
<path d="M0 0 C2.97 0.33 5.94 0.66 9 1 C9 1.99 9 2.98 9 4 C6.03 3.67 3.06 3.34 0 3 C0 2.01 0 1.02 0 0 Z " fill="#D2D2D2" transform="translate(21,86)"/>
<path d="M0 0 C1.32 0.33 2.64 0.66 4 1 C4.625 3.375 4.625 3.375 5 6 C4.34 6.66 3.68 7.32 3 8 C2.01 8 1.02 8 0 8 C0 7.34 0 6.68 0 6 C0.99 6 1.98 6 3 6 C3 5.34 3 4.68 3 4 C2.01 4 1.02 4 0 4 C0 2.68 0 1.36 0 0 Z " fill="#393939" transform="translate(108,183)"/>
<path d="M0 0 C-0.33 2.97 -0.66 5.94 -1 9 C-1.33 9 -1.66 9 -2 9 C-2.33 7.35 -2.66 5.7 -3 4 C-3.99 4.33 -4.98 4.66 -6 5 C-6 3.68 -6 2.36 -6 1 C-4 0 -4 0 0 0 Z " fill="#9B9B9B" transform="translate(173,221)"/>
<path d="M0 0 C-2.98440561 1.54078615 -6.01007758 2.86973276 -9.125 4.125 C-9.99382812 4.47820312 -10.86265625 4.83140625 -11.7578125 5.1953125 C-14 6 -14 6 -16 6 C-16 5.34 -16 4.68 -16 4 C-14.274773 3.32320342 -12.54461061 2.65898 -10.8125 2 C-9.84957031 1.62875 -8.88664062 1.2575 -7.89453125 0.875 C-5.07817642 0.02363228 -2.91835561 -0.17072647 0 0 Z " fill="#131313" transform="translate(130,194)"/>
<path d="M0 0 C1.65 0.33 3.3 0.66 5 1 C4.67 2.32 4.34 3.64 4 5 C2.68 5.33 1.36 5.66 0 6 C-1.125 2.25 -1.125 2.25 0 0 Z " fill="#E3E3E3" transform="translate(172,149)"/>
<path d="M0 0 C4.875 4.625 4.875 4.625 6 8 C4.88625 7.5359375 4.88625 7.5359375 3.75 7.0625 C1.49307824 6.1905075 -0.6450153 5.52332993 -3 5 C-1.125 1.125 -1.125 1.125 0 0 Z " fill="#E9E9E9" transform="translate(40,50)"/>
<path d="M0 0 C1.65 0 3.3 0 5 0 C5 1.65 5 3.3 5 5 C4.38125 4.814375 3.7625 4.62875 3.125 4.4375 C0.95839822 3.76313824 0.95839822 3.76313824 -1 5 C-0.67 3.35 -0.34 1.7 0 0 Z " fill="#9C9C9C" transform="translate(123,223)"/>
<path d="M0 0 C0.33 0 0.66 0 1 0 C1 1.98 1 3.96 1 6 C-1.64 6.33 -4.28 6.66 -7 7 C-7 6.01 -7 5.02 -7 4 C-4.69 4 -2.38 4 0 4 C0 2.68 0 1.36 0 0 Z " fill="#D5D5D5" transform="translate(28,114)"/>
<path d="M0 0 C2.475 0.495 2.475 0.495 5 1 C5 2.98 5 4.96 5 7 C4.67 6.34 4.34 5.68 4 5 C3.01 5.33 2.02 5.66 1 6 C0 1.125 0 1.125 0 0 Z " fill="#B4B4B4" transform="translate(186,89)"/>
<path d="M0 0 C2.64 0 5.28 0 8 0 C8 0.66 8 1.32 8 2 C6.02 2 4.04 2 2 2 C1.67 3.65 1.34 5.3 1 7 C0.67 7 0.34 7 0 7 C0 4.69 0 2.38 0 0 Z " fill="#323232" transform="translate(151,223)"/>
<path d="M0 0 C0.66 0.66 1.32 1.32 2 2 C0.35 5.63 -1.3 9.26 -3 13 C-3.66 12.01 -4.32 11.02 -5 10 C-3.35 6.7 -1.7 3.4 0 0 Z " fill="#D5D5D5" transform="translate(50,156)"/>
<path d="M0 0 C0.66 0.33 1.32 0.66 2 1 C3.2077558 4.62326739 2.54311128 5.64146369 1 9 C0.01 8.67 -0.98 8.34 -2 8 C-1.34 5.36 -0.68 2.72 0 0 Z " fill="#646464" transform="translate(62,137)"/>
<path d="M0 0 C1.4540625 0.0309375 1.4540625 0.0309375 2.9375 0.0625 C2.6075 1.0525 2.2775 2.0425 1.9375 3.0625 C-1.625 4.25 -1.625 4.25 -5.0625 5.0625 C-3.9375 0.08035714 -3.9375 0.08035714 0 0 Z " fill="#F0F0F0" transform="translate(32.0625,136.9375)"/>
<path d="M0 0 C0.66 0 1.32 0 2 0 C2.042721 1.66611905 2.04063832 3.33382885 2 5 C1 6 1 6 -1.5625 6.0625 C-2.7690625 6.0315625 -2.7690625 6.0315625 -4 6 C-4 4.68 -4 3.36 -4 2 C-2.68 2.66 -1.36 3.32 0 4 C0 2.68 0 1.36 0 0 Z " fill="#F3F3F3" transform="translate(189,119)"/>
<path d="M0 0 C2.625 0.75 2.625 0.75 5 2 C5.33 2.66 5.66 3.32 6 4 C4.02 4 2.04 4 0 4 C-0.33 4.99 -0.66 5.98 -1 7 C-1.66 7 -2.32 7 -3 7 C-3.1875 4.625 -3.1875 4.625 -3 2 C-2.01 1.34 -1.02 0.68 0 0 Z " fill="#D4D4D4" transform="translate(177,65)"/>
<path d="M0 0 C0.66 0 1.32 0 2 0 C1.51421457 3.12290635 1.0013988 5.99580359 0 9 C-0.66 9 -1.32 9 -2 9 C-2.33 7.68 -2.66 6.36 -3 5 C-2.34 5 -1.68 5 -1 5 C-0.67 3.35 -0.34 1.7 0 0 Z " fill="#DADADA" transform="translate(130,24)"/>
<path d="M0 0 C5.75 0.875 5.75 0.875 8 2 C7.67 2.99 7.34 3.98 7 5 C4.36 4.01 1.72 3.02 -1 2 C-0.67 1.34 -0.34 0.68 0 0 Z " fill="#E7E7E7" transform="translate(91,198)"/>
<path d="M0 0 C0.66 0 1.32 0 2 0 C1.835 1.093125 1.67 2.18625 1.5 3.3125 C0.93281816 6.87525873 0.93281816 6.87525873 1 10 C0.01 9.34 -0.98 8.68 -2 8 C-1.125 2.25 -1.125 2.25 0 0 Z " fill="#DDDDDD" transform="translate(143,30)"/>
<path d="M0 0 C2.46278801 1.231394 3.42497687 2.78064923 5 5 C3.35 5.33 1.7 5.66 0 6 C-0.66 4.68 -1.32 3.36 -2 2 C-1.34 1.34 -0.68 0.68 0 0 Z " fill="#696969" transform="translate(134,27)"/>
<path d="M0 0 C3.40312738 1.05875074 6.01353231 2.00902154 9 4 C8.67 4.99 8.34 5.98 8 7 C5 5 2 3 -1 1 C-0.67 0.67 -0.34 0.34 0 0 Z " fill="#212121" transform="translate(76,83)"/>
<path d="M0 0 C4.95 0 9.9 0 15 0 C15 0.33 15 0.66 15 1 C14.05125 1.12375 13.1025 1.2475 12.125 1.375 C8.91332809 1.71687177 8.91332809 1.71687177 7 4 C6.67 3.34 6.34 2.68 6 2 C2.97065509 1.34227572 2.97065509 1.34227572 0 1 C0 0.67 0 0.34 0 0 Z " fill="#FAFAFA" transform="translate(79,220)"/>
<path d="M0 0 C0 0.33 0 0.66 0 1 C-3.96 1.66 -7.92 2.32 -12 3 C-12 2.34 -12 1.68 -12 1 C-7.53763531 -0.80619523 -4.68965706 -1.11658501 0 0 Z " fill="#C8C8C8" transform="translate(56,196)"/>
<path d="M0 0 C-0.33 0.66 -0.66 1.32 -1 2 C-3.64860427 2.59355614 -6.29197322 2.74209269 -9 3 C-9.33 2.34 -9.66 1.68 -10 1 C-3.71428571 -1.42857143 -3.71428571 -1.42857143 0 0 Z " fill="#303030" transform="translate(125,127)"/>
<path d="M0 0 C0.99 0.33 1.98 0.66 3 1 C3 2.65 3 4.3 3 6 C1.35 6.33 -0.3 6.66 -2 7 C-2 6.34 -2 5.68 -2 5 C-1.01 5 -0.02 5 1 5 C0.67 3.35 0.34 1.7 0 0 Z " fill="#F1F1F1" transform="translate(111,225)"/>
<path d="M0 0 C1.32 0.99 2.64 1.98 4 3 C3.34 3 2.68 3 2 3 C1.67 3.99 1.34 4.98 1 6 C-0.32 5.01 -1.64 4.02 -3 3 C-2 1 -2 1 0 0 Z " fill="#DADADA" transform="translate(96,224)"/>
<path d="M0 0 C1.39195915 4.17587745 -0.17676781 6.13474776 -2 10 C-2.66 9.67 -3.32 9.34 -4 9 C-2.25 2.25 -2.25 2.25 0 0 Z " fill="#0E0E0E" transform="translate(42,180)"/>
<path d="M0 0 C0.99 0.33 1.98 0.66 3 1 C4.1875 4.0625 4.1875 4.0625 5 7 C4.01 7.33 3.02 7.66 2 8 C0.74335022 5.09399739 0 3.20395416 0 0 Z " fill="#EBEBEB" transform="translate(164,184)"/>
<path d="M0 0 C0.33 0.66 0.66 1.32 1 2 C-1.22189824 4.22189824 -3.08482708 4.92598892 -6 6 C-5.67 4.35 -5.34 2.7 -5 1 C-3.35 0.67 -1.7 0.34 0 0 Z " fill="#373737" transform="translate(64,146)"/>
<path d="M0 0 C0 1.65 0 3.3 0 5 C-1.65 5 -3.3 5 -5 5 C-4.625 3.0625 -4.625 3.0625 -4 1 C-2 0 -2 0 0 0 Z " fill="#C0C0C0" transform="translate(28,109)"/>
<path d="M0 0 C0 0.99 0 1.98 0 3 C-0.99 3 -1.98 3 -3 3 C-3.33 3.66 -3.66 4.32 -4 5 C-4 4.01 -4 3.02 -4 2 C-4.66 2 -5.32 2 -6 2 C-6 1.34 -6 0.68 -6 0 C-2.25 -1.125 -2.25 -1.125 0 0 Z " fill="#CACACA" transform="translate(185,82)"/>
<path d="M0 0 C1.98 0.495 1.98 0.495 4 1 C3.67 2.32 3.34 3.64 3 5 C1.68 4.67 0.36 4.34 -1 4 C-0.67 2.68 -0.34 1.36 0 0 Z " fill="#2E2E2E" transform="translate(150,37)"/>
<path d="M0 0 C1.65 0 3.3 0 5 0 C5 2.97 5 5.94 5 9 C3 6 3 6 3 3 C2.01 2.67 1.02 2.34 0 2 C0 1.34 0 0.68 0 0 Z " fill="#4C4C4C" transform="translate(132,222)"/>
<path d="M0 0 C1.32 0.33 2.64 0.66 4 1 C4 1.99 4 2.98 4 4 C2.02 4.99 2.02 4.99 0 6 C0 4.02 0 2.04 0 0 Z " fill="#121212" transform="translate(139,223)"/>
<path d="M0 0 C1.32 0 2.64 0 4 0 C3.67 1.32 3.34 2.64 3 4 C2.34 4 1.68 4 1 4 C0.67 5.32 0.34 6.64 0 8 C0 5.36 0 2.72 0 0 Z " fill="#2E2E2E" transform="translate(102,222)"/>
<path d="M0 0 C0.99 0.33 1.98 0.66 3 1 C4.1875 4.5625 4.1875 4.5625 5 8 C3.0625 7.375 3.0625 7.375 1 6 C0.25 2.875 0.25 2.875 0 0 Z " fill="#1B1B1B" transform="translate(146,152)"/>
<path d="M0 0 C-1 2 -1 2 -2.84765625 2.6328125 C-3.57855469 2.79523438 -4.30945313 2.95765625 -5.0625 3.125 C-5.79597656 3.29257813 -6.52945313 3.46015625 -7.28515625 3.6328125 C-7.85105469 3.75398438 -8.41695312 3.87515625 -9 4 C-8.67 3.01 -8.34 2.02 -8 1 C-2.59770115 -1.29885057 -2.59770115 -1.29885057 0 0 Z " fill="#272727" transform="translate(139,117)"/>
<path d="M0 0 C1.32 0 2.64 0 4 0 C4 1.32 4 2.64 4 4 C2.02 4 0.04 4 -2 4 C-1.34 2.68 -0.68 1.36 0 0 Z " fill="#DADADA" transform="translate(184,112)"/>
<path d="M0 0 C1 4 1 4 -0.9375 7.25 C-1.618125 8.1575 -2.29875 9.065 -3 10 C-3.66 9.34 -4.32 8.68 -5 8 C-3.35 5.36 -1.7 2.72 0 0 Z " fill="#2C2C2C" transform="translate(153,100)"/>
<path d="M0 0 C-1 3 -1 3 -2.875 4.1875 C-5 5 -5 5 -8 5 C-8 4.34 -8 3.68 -8 3 C-7.01 3 -6.02 3 -5 3 C-5 2.34 -5 1.68 -5 1 C-2 0 -2 0 0 0 Z " fill="#EEEEEE" transform="translate(186,75)"/>
<path d="M0 0 C0.99 0.33 1.98 0.66 3 1 C2.49396008 3.16874252 2.00016187 4.99967627 1 7 C0.01 7 -0.98 7 -2 7 C-1.67 6.01 -1.34 5.02 -1 4 C-0.34 4 0.32 4 1 4 C1 3.34 1 2.68 1 2 C0.34 1.67 -0.32 1.34 -1 1 C-0.67 0.67 -0.34 0.34 0 0 Z " fill="#E7E7E7" transform="translate(34,68)"/>
<path d="M0 0 C2.9719385 1.12451727 5.33440687 2.22293791 8 4 C8 4.66 8 5.32 8 6 C5.0280615 4.87548273 2.66559313 3.77706209 0 2 C0 1.34 0 0.68 0 0 Z " fill="#D8D8D8" transform="translate(35,56)"/>
<path d="M0 0 C2.38564077 0.57584432 4.66682784 1.22227595 7 2 C6 4 6 4 4 5 C3.01 4.01 2.02 3.02 1 2 C1 2.66 1 3.32 1 4 C0.34 4 -0.32 4 -1 4 C-0.67 2.68 -0.34 1.36 0 0 Z " fill="#252525" transform="translate(158,43)"/>
<path d="M0 0 C1.65 0 3.3 0 5 0 C4.67 1.98 4.34 3.96 4 6 C3.34 6 2.68 6 2 6 C2 4.68 2 3.36 2 2 C1.34 2 0.68 2 0 2 C0 1.34 0 0.68 0 0 Z " fill="#3B3B3B" transform="translate(115,183)"/>
<path d="M0 0 C0.99 0.495 0.99 0.495 2 1 C2.73075648 3.3140622 3.40138258 5.64828869 4 8 C3.34 8.66 2.68 9.32 2 10 C0.39644899 6.49223216 -0.22036864 3.85645121 0 0 Z " fill="#D2D2D2" transform="translate(158,177)"/>
<path d="M0 0 C-1 3 -1 3 -4 5 C-4.99 5 -5.98 5 -7 5 C-6 2 -6 2 -4.0625 0.8125 C-2 0 -2 0 0 0 Z " fill="#E4E4E4" transform="translate(37,141)"/>
<path d="M0 0 C1.32 0.33 2.64 0.66 4 1 C3.01 1.495 3.01 1.495 2 2 C1.27840576 3.64363134 0.60648579 5.31050386 0 7 C-0.66 6.01 -1.32 5.02 -2 4 C-1.34 2.68 -0.68 1.36 0 0 Z " fill="#F2F2F2" transform="translate(68,28)"/>
<path d="M0 0 C2.475 0.495 2.475 0.495 5 1 C5 1.66 5 2.32 5 3 C4.01 3 3.02 3 2 3 C1.67 4.65 1.34 6.3 1 8 C0.67 8 0.34 8 0 8 C0 5.36 0 2.72 0 0 Z " fill="#6D6D6D" transform="translate(64,222)"/>
<path d="M0 0 C0.99 0 1.98 0 3 0 C3.66 2.31 4.32 4.62 5 7 C4.01 6.67 3.02 6.34 2 6 C0.8125 2.9375 0.8125 2.9375 0 0 Z " fill="#5B5B5B" transform="translate(146,142)"/>
<path d="M0 0 C1.98 0.495 1.98 0.495 4 1 C3.67 1.99 3.34 2.98 3 4 C1.68 4 0.36 4 -1 4 C-0.67 2.68 -0.34 1.36 0 0 Z " fill="#141414" transform="translate(25,125)"/>
<path d="M0 0 C2.0625 0.4375 2.0625 0.4375 4 1 C4.33 2.32 4.66 3.64 5 5 C2.53199953 3.84826645 0.95216435 2.95216435 -1 1 C-0.67 0.67 -0.34 0.34 0 0 Z " fill="#E5E5E5" transform="translate(136,27)"/>
</svg>
